<?xml version="1.0" encoding="UTF-8"?>
<svg id="Layer_1" data-name="Layer 1" xmlns="http://www.w3.org/2000/svg" viewBox="0 0 100 100">
  <defs>
    <style>
      .cls-1 {
        stroke-width: 0px;
      }
    </style>
  </defs>
  <path class="cls-1" d="M7.7,23.73c.54-1.55,1.41-2.8,3.13-3.19.53-.12,1.09-.15,1.63-.15,25.03,0,50.06,0,75.09,0,2.56,0,4.09,1.07,4.63,3.24.09.37.11.76.11,1.14,0,9.31,0,18.62,0,27.93,0,2.53-1.64,4.24-4.18,4.39-.33.02-.66,0-.99,0-24.67,0-49.34-.02-74.02.03-2.59,0-4.5-.75-5.4-3.31v-30.08ZM50.06,23.23c-12.5,0-25,0-37.49,0-1.6,0-2.04.45-2.04,2.08,0,8.95,0,17.9,0,26.84,0,1.67.37,2.04,2.02,2.05,24.97,0,49.94,0,74.9,0,1.66,0,2.03-.38,2.03-2.04,0-8.95,0-17.9,0-26.84,0-1.69-.39-2.08-2.09-2.08-12.44,0-24.89,0-37.33,0Z"/>
  <path class="cls-1" d="M50.19,76.79c-.87,0-1.35-.33-1.58-1.01-.23-.69.08-1.15.65-1.52.48-.31.97-.63,1.39-1.02.97-.89.98-1.71-.05-2.56-.8-.67-1.72-1.18-2.53-1.84-.57-.46-1.1-1.01-1.52-1.61-1.16-1.69-1.09-3.62.27-5.17.66-.75,1.49-1.37,2.32-1.95.74-.52,1.46-.35,1.88.27.48.72.33,1.43-.39,2.01-.51.42-1.03.83-1.46,1.32-.75.86-.71,1.61.17,2.36.56.48,1.28.77,1.83,1.25.88.76,1.83,1.51,2.48,2.46.94,1.39.91,3-.12,4.32-.75.97-1.82,1.71-2.77,2.52-.17.14-.46.14-.56.16Z"/>
  <path class="cls-1" d="M34.71,79.61c-.9.01-1.4-.33-1.63-1.06-.21-.67.12-1.09.64-1.45.52-.36,1.06-.7,1.51-1.13.83-.78.85-1.6-.01-2.34-.81-.7-1.75-1.23-2.58-1.91-.57-.46-1.11-.99-1.54-1.59-1.21-1.68-1.16-3.68.2-5.24.68-.77,1.54-1.4,2.39-1.99.73-.5,1.45-.29,1.86.36.45.71.29,1.38-.4,1.94-.53.43-1.07.87-1.53,1.38-.71.81-.7,1.52.1,2.23.59.52,1.29.92,1.97,1.34,1.13.69,2.07,1.54,2.63,2.77.64,1.39.62,2.81-.3,3.98-.76.97-1.81,1.72-2.76,2.53-.17.14-.46.15-.56.17Z"/>
  <path class="cls-1" d="M69.76,74.62c-.08,1.88-1.05,3.16-2.46,4.14-.56.39-1.24.69-1.91.81-.67.12-1.12-.39-1.3-1.02-.17-.59.07-1.06.59-1.41.54-.37,1.11-.72,1.58-1.17.83-.79.84-1.58-.02-2.34-.67-.6-1.46-1.06-2.2-1.59-.25-.18-.5-.35-.73-.54-2.75-2.31-2.75-5.36.01-7.65.44-.37.93-.69,1.43-.97.69-.39,1.37-.24,1.75.32.45.66.32,1.45-.3,1.98-.56.48-1.15.95-1.63,1.5-.63.73-.6,1.46.13,2.1.61.54,1.33.96,2.03,1.39,1.7,1.05,2.9,2.43,3.02,4.46Z"/>
  <path class="cls-1" d="M50.01,42.92c11.51,0,23.01,0,34.52,0,.43,0,.89.02,1.3.16.62.21.88.74.84,1.37-.04.63-.34,1.11-1,1.25-.37.08-.76.11-1.14.11-23.01,0-46.03,0-69.04,0-.3,0-.61-.01-.9-.07-.81-.14-1.24-.64-1.24-1.39,0-.73.47-1.27,1.25-1.4.32-.05.66-.04.99-.04,11.48,0,22.96,0,34.44,0Z"/>
  <path class="cls-1" d="M50,51.46c-11.48,0-22.96,0-34.44,0-.44,0-.88-.03-1.3-.14-.65-.17-.92-.67-.92-1.31,0-.63.27-1.13.92-1.31.34-.1.7-.14,1.06-.14,23.12,0,46.25,0,69.37,0,.35,0,.72.04,1.06.14.64.18.92.68.92,1.31,0,.63-.27,1.14-.92,1.31-.42.11-.87.14-1.3.14-11.48,0-22.96,0-34.44,0Z"/>
  <path class="cls-1" d="M50,33.13c-1.71,0-3.41,0-5.12,0-.35,0-.72-.04-1.05-.14-.65-.19-.9-.73-.88-1.34.02-.61.29-1.13.96-1.28.37-.08.76-.12,1.14-.12,3.3,0,6.61,0,9.91,0,1.47,0,2.15.49,2.12,1.49-.03.98-.68,1.41-2.12,1.41-1.65,0-3.3,0-4.95,0Z"/>
</svg>