<?xml version="1.0" encoding="UTF-8"?><svg id="a" xmlns="http://www.w3.org/2000/svg" viewBox="0 0 100 100"><path d="M16.711,64.491c.141-5.215.282-10.429.424-15.644.056-2.051.131-4.101.156-6.152.004-.287-.147-.731-.361-.844-4.235-2.224-6.631-5.887-7.792-10.348-1.743-6.695-.94-13.04,3.432-18.614,2.355-3.002,5.459-4.754,9.412-4.589,3.063.128,5.548,1.523,7.631,3.681,2.605,2.7,4.067,5.996,4.688,9.644.882,5.186.183,10.147-2.527,14.73-1.369,2.315-3.201,4.167-5.614,5.422-.234.121-.469.52-.462.784.21,8.672.454,17.343.682,26.015.155,5.889.321,11.777.425,17.666.055,3.084-2.315,5.429-5.345,5.424-2.98-.005-5.396-2.413-5.342-5.469.087-4.922.282-9.843.39-14.765.051-2.313.009-4.628.009-6.942.065,0,.13,0,.195,0ZM19.238,63.881s-.008,0-.012,0c-.188,7.295-.379,14.59-.554,21.885-.012.518.004,1.069.163,1.554.417,1.27,1.811,2.078,3.047,1.851,1.468-.269,2.466-1.388,2.452-2.88-.021-2.256-.104-4.512-.167-6.768-.147-5.244-.303-10.487-.447-15.731-.204-7.441-.396-14.883-.607-22.324-.023-.821.312-1.313,1.075-1.596,2.291-.85,3.994-2.431,5.254-4.474,2.741-4.444,3.264-9.267,2.188-14.288-.709-3.312-2.195-6.239-4.901-8.401-1.806-1.443-3.861-2.185-6.208-1.86-3.144.435-5.38,2.266-6.954,4.868-3.353,5.543-3.606,11.388-1.254,17.347,1.186,3.005,3.134,5.411,6.212,6.711,1.214.513,1.332.699,1.295,2.045-.199,7.353-.389,14.707-.582,22.06Z" style="stroke-width:0px;"/><path d="M80.854,65.697c-.235-9.082-.421-16.377-.615-23.672-.041-1.528.048-1.676,1.479-2.13,4.568-1.449,7.51-5.488,7.527-10.42.022-6.449.005-12.897.006-19.346,0-.264-.032-.534.015-.79.121-.658.526-1.036,1.209-1.04.683-.003,1.088.374,1.22,1.029.045.226.016.467.016.702,0,6.507.004,13.015,0,19.522-.004,5.618-3.117,10.272-8.325,12.382-.55.223-.67.504-.655,1.037.218,7.353.425,14.706.624,22.06.154,5.684.304,11.367.435,17.052.04,1.753.199,3.531-.025,5.255-.36,2.771-2.892,4.542-5.797,4.323-2.582-.195-4.768-2.526-4.724-5.231.097-6.007.267-12.013.425-18.019.139-5.273.309-10.546.452-15.82.088-3.223.143-6.446.237-9.669.015-.502-.099-.772-.604-.986-5.443-2.315-8.25-6.507-8.36-12.362-.122-6.534-.03-13.073-.022-19.609,0-.316-.017-.735.164-.923.312-.324.771-.685,1.173-.69.356-.004.825.386,1.045.729.197.307.16.789.161,1.193.008,6.302.104,12.606-.023,18.906-.114,5.651,3.695,9.792,7.914,10.82.84.205,1.152.781,1.127,1.635-.151,5.127-.275,10.254-.418,15.381-.147,5.244-.307,10.488-.457,15.731-.118,4.131-.238,8.261-.334,12.393-.016.695-.018,1.421.161,2.082.35,1.294,1.692,2.129,2.962,1.977,1.406-.168,2.513-1.28,2.53-2.7.022-1.933-.042-3.868-.095-5.802-.152-5.596-.318-11.191-.427-15Z" style="stroke-width:0px;"/><path d="M55.867,49.136c0,12.22-.015,24.44.013,36.659.005,2.309-.773,4.14-2.839,5.249-1.853.995-3.744.896-5.49-.277-1.716-1.152-2.484-2.836-2.358-4.897.317-5.173.653-10.346.981-15.518.124-1.958.224-3.918.387-5.873.045-.534-.134-.785-.579-1.018-1.296-.677-2.558-1.419-3.857-2.09-.771-.399-1.114-.961-1.05-1.833.409-5.575.663-11.166,1.229-16.725,1.106-10.847,3.467-21.438,6.851-31.809.952-2.916,3.765-3.265,5.323-2.108.819.608,1.313,1.402,1.367,2.437.02.38.022.761.022,1.142.001,12.22,0,24.44,0,36.659ZM53.374,49.1c0-9.76,0-19.521,0-29.281,0-2.433,0-4.865,0-7.298,0-.147-.009-.294.002-.44.044-.603-.042-1.173-.749-1.281-.665-.101-.868.418-1.047.951-2.881,8.584-4.874,17.374-6.17,26.331-.982,6.788-1.589,13.605-1.761,20.462-.014.569.112.897.65,1.167,1.254.628,2.445,1.385,3.705,2.001.895.437,1.254,1.051,1.14,2.028-.102.872-.126,1.752-.183,2.629-.274,4.179-.553,8.358-.818,12.538-.157,2.485-.314,4.97-.422,7.457-.053,1.208.581,2.061,1.658,2.563,1.097.512,2.125.298,3.026-.46.772-.65.98-1.533.979-2.524-.013-12.281-.008-24.562-.008-36.843Z" style="stroke-width:0px;"/><path d="M71.329,19.288c0-3.076-.004-6.152.006-9.228.001-.344-.033-.804.162-1.006.326-.339.831-.714,1.245-.696.361.015.778.501,1.021.875.167.258.1.681.101,1.031.005,6.005.004,12.011.003,18.016,0,1.313-.405,1.951-1.238,1.971-.865.022-1.298-.644-1.298-1.999,0-2.988,0-5.976,0-8.964Z" style="stroke-width:0px;"/><path d="M85.749,19.287c0,3.192-.006,6.385.003,9.577.002.766-.368,1.249-1.092,1.361-.66.102-1.114-.284-1.34-.896-.068-.184-.046-.405-.046-.609-.002-6.297-.003-12.594,0-18.891,0-1.009.46-1.55,1.271-1.534.786.016,1.199.512,1.201,1.503.008,3.163.003,6.326.002,9.489Z" style="stroke-width:0px;"/><path d="M77.3,19.286c0-3.163.006-6.327-.004-9.49-.002-.725.246-1.273.974-1.476.704-.196,1.363.254,1.489.983.044.257.04.525.04.788.002,6.122.001,12.243.001,18.365,0,.117.002.234-.003.351-.04.864-.514,1.428-1.214,1.443-.732.016-1.276-.583-1.279-1.475-.011-3.163-.004-6.327-.004-9.49Z" style="stroke-width:0px;"/></svg>