<?xml version="1.0" encoding="UTF-8"?><svg id="a" xmlns="http://www.w3.org/2000/svg" viewBox="0 0 100 100"><path d="M7.703,23.731c.542-1.555,1.412-2.804,3.128-3.188.53-.119,1.089-.145,1.635-.145,25.03-.007,50.061-.007,75.091-.004,2.556,0,4.086,1.072,4.627,3.236.092.367.108.761.108,1.143.006,9.309.008,18.617.002,27.926-.002,2.527-1.645,4.239-4.179,4.386-.329.019-.661.008-.991.008-24.672,0-49.345-.017-74.017.026-2.587.005-4.496-.746-5.403-3.312v-30.075ZM50.057,23.231c-12.498,0-24.996,0-37.493,0-1.597,0-2.043.452-2.043,2.076-.001,8.948-.001,17.896,0,26.844,0,1.667.371,2.045,2.025,2.045,24.968.001,49.936.001,74.904,0,1.656,0,2.028-.377,2.028-2.042.001-8.948,0-17.896,0-26.844,0-1.69-.394-2.079-2.093-2.079-12.443,0-24.885,0-37.328,0Z" style="stroke-width:0px;"/><path d="M50.187,76.79c-.865.002-1.355-.327-1.581-1.01-.229-.69.083-1.149.649-1.518.482-.314.97-.634,1.392-1.021.972-.891.975-1.709-.051-2.565-.798-.666-1.725-1.177-2.529-1.836-.567-.464-1.102-1.008-1.516-1.609-1.162-1.687-1.087-3.623.267-5.169.659-.752,1.493-1.372,2.32-1.948.745-.519,1.463-.353,1.875.272.476.721.325,1.43-.387,2.014-.509.417-1.034.831-1.464,1.323-.751.857-.706,1.607.169,2.356.557.477,1.276.767,1.829,1.248.879.764,1.834,1.513,2.478,2.458.945,1.386.906,2.998-.121,4.324-.753.973-1.82,1.707-2.773,2.518-.167.142-.46.137-.556.163Z" style="stroke-width:0px;"/><path d="M34.709,79.608c-.901.012-1.402-.334-1.627-1.058-.208-.667.121-1.091.641-1.45.519-.358,1.057-.705,1.513-1.135.827-.78.845-1.595-.014-2.336-.808-.696-1.753-1.231-2.581-1.907-.569-.464-1.114-.994-1.542-1.587-1.209-1.677-1.164-3.682.199-5.241.675-.772,1.539-1.403,2.393-1.987.726-.497,1.449-.292,1.859.359.445.706.288,1.382-.397,1.937-.532.432-1.073.869-1.525,1.379-.713.805-.697,1.523.104,2.234.589.523,1.294.92,1.971,1.335,1.126.69,2.065,1.542,2.627,2.766.638,1.388.622,2.806-.303,3.983-.762.97-1.814,1.717-2.763,2.534-.168.145-.459.146-.556.174Z" style="stroke-width:0px;"/><path d="M69.763,74.617c-.075,1.875-1.054,3.164-2.463,4.14-.559.388-1.24.688-1.905.81-.668.122-1.125-.385-1.303-1.024-.165-.594.07-1.06.586-1.409.544-.369,1.11-.724,1.584-1.173.831-.787.838-1.577-.022-2.338-.674-.596-1.461-1.064-2.195-1.592-.245-.176-.495-.349-.726-.543-2.746-2.311-2.746-5.357.014-7.653.441-.367.927-.691,1.428-.971.692-.386,1.372-.237,1.751.317.451.658.318,1.453-.297,1.98-.561.481-1.151.945-1.631,1.501-.63.73-.597,1.461.13,2.104.609.539,1.33.959,2.026,1.391,1.699,1.054,2.897,2.43,3.023,4.458Z" style="stroke-width:0px;"/><path d="M50.005,42.919c11.507,0,23.013-.002,34.52.006.434,0,.892.023,1.298.158.622.206.878.737.836,1.369-.041.628-.338,1.114-.999,1.25-.374.077-.763.109-1.145.109-23.013.005-46.026.005-69.04.002-.301,0-.606-.015-.902-.066-.807-.139-1.243-.639-1.241-1.387.002-.733.466-1.274,1.248-1.401.323-.052.658-.038.988-.039,11.479-.002,22.958-.001,34.437-.001Z" style="stroke-width:0px;"/><path d="M50.003,51.459c-11.479,0-22.958.001-34.437-.006-.435,0-.884-.031-1.303-.139-.646-.165-.921-.674-.922-1.307-.001-.633.275-1.131.917-1.313.338-.096.703-.137,1.056-.137,23.123-.006,46.247-.006,69.37,0,.353,0,.717.041,1.056.136.644.179.92.677.922,1.31.001.633-.272,1.143-.917,1.31-.419.109-.868.14-1.303.14-11.479.007-22.958.006-34.437.006Z" style="stroke-width:0px;"/><path d="M50.001,33.125c-1.706,0-3.413.008-5.119-.006-.353-.003-.718-.041-1.054-.142-.647-.194-.898-.733-.881-1.343.017-.61.291-1.134.958-1.284.371-.083.76-.122,1.142-.123,3.303-.009,6.606-.007,9.908-.005,1.467,0,2.151.487,2.116,1.493-.033.979-.677,1.409-2.115,1.41-1.651.001-3.303,0-4.954,0Z" style="stroke-width:0px;"/></svg>