<?xml version="1.0" encoding="UTF-8"?><svg id="a" xmlns="http://www.w3.org/2000/svg" viewBox="0 0 100 100"><path d="M97.013,73.722c-.443.648-1.038.909-1.84.963-7.48.496-14.965.858-22.459.525-4.698-.209-9.392-.575-14.079-.975-1.909-.163-3.807-.541-5.685-.938-1.113-.235-2.102-.089-3.108.364-3.643,1.64-7.268,3.326-10.949,4.877-5.427,2.286-10.946,4.325-16.73,5.543-2.67.562-5.362.935-8.092.499-3.805-.608-5.045-2.796-4.704-6.432.351-3.741,1.569-7.256,2.834-10.839-.649-.474-1.36-.9-1.957-1.449-1.839-1.692-3.644-3.421-5.436-5.162-.322-.312-.542-.738-.773-1.133-1.492-2.557-1.484-4.206.609-6.273,2.033-2.007,4.373-3.703,6.587-5.525.328-.27.701-.486,1.137-.784-.546-1.562-1.047-3.15-1.652-4.696-.955-2.438-1.021-4.913-1.001-7.525.032-4.159,2.234-6.967,4.822-9.714.269-.285.587-.569.735-.916,1.714-4.021,4.981-5.938,9.074-6.737.627-.122,1.279-.114,1.906-.236.767-.149,1.557-.283,2.273-.58,2.938-1.221,5.961-1.618,9.048-.828,2.857.731,4.7,2.613,5.519,5.46.255.887-.123,1.608-.946,1.897-.754.265-1.587-.081-1.828-.916-.99-3.425-3.739-4.015-6.736-3.827-1.154.072-2.29.437-3.654.713,1.337,1.379,2.688,2.074,4.2,2.546,2.121.663,4.223,1.388,6.325,2.111.458.158.889.404,1.315.641,3.477,1.933,4.353,3.834,3.93,8.242-.059.615.002,1.072.338,1.606,1.49,2.364,1.04,4.719-.179,7.03-.212.402-.502.764-.755,1.144.647.756,1.472.555,2.279.444.816-.113,1.629-.271,2.449-.322.872-.054,1.491.523,1.557,1.332.06.749-.447,1.439-1.241,1.575-1.263.217-2.53.439-3.804.543-.542.044-1.147-.111-1.653-.336-.918-.409-1.792-.92-2.666-1.42-1.209-.69-1.338-1.741-.29-2.663,1.119-.985,1.873-2.146,2.14-3.63.243-1.351-.016-2.364-1.268-2.932-1.789-.812-3.652-1.602-5.567-1.968-3.802-.726-7.662-1.152-11.496-1.711-2.192-.32-4.279-.982-6.239-2.018-.863-.456-1.154-1.3-.764-2.07.365-.719,1.238-1.03,2.042-.597,2.927,1.577,6.164,1.875,9.363,2.308,4.259.576,8.564.906,12.601,2.566.05.02.118-.005.178-.01.325-1.91-.275-3.144-1.341-3.852-2.252-1.496-4.778-2.295-7.357-2.931-2.736-.675-5.031-1.984-6.785-4.221-.166-.212-.571-.375-.842-.346-3.802.42-7.107,1.612-8.568,5.625-.128.352-.456.635-.71.935-1.045,1.233-2.167,2.41-3.119,3.711-.527.719-.877,1.612-1.129,2.478-.54,1.862.241,3.456,2.11,3.941,1.544.4,3.186.607,4.781.59,3.084-.034,6.165-.314,9.249-.44,3.308-.135,6.601-.02,9.798.972.58.18,1.154.404,1.696.678.769.388,1.043,1.117.762,1.834-.302.768-1.075,1.211-1.863.891-4.954-2.009-10.083-1.461-15.203-1.105-3.14.219-6.285.514-9.391-.3-.607-.159-1.197-.38-1.938-.618.249.758.452,1.415.679,2.064.837,2.387,1.673,4.775,2.529,7.155.484,1.345.448,2.694.131,4.058-.076.327-.16.652-.234.978-.448,1.96-.436,1.936,1.291,2.812.477.242,1.009.582,1.259,1.023.884,1.558,1.662,3.177,2.467,4.779.108.214.131.468.211.698.326.941.797,1.106,1.545.414,2.378-2.199,4.722-4.436,7.07-6.667.354-.336.627-.762.997-1.075,1.232-1.041,1.261-2.337.87-3.743-.082-.293-.176-.584-.239-.882-.172-.807.155-1.388.891-1.698.765-.322,1.513-.072,1.791.642.834,2.14,1.449,4.356-.168,6.42-1.109,1.415-2.36,2.719-3.509,4.104-.373.45-.738.966-.908,1.513-.449,1.443-.789,2.919-1.182,4.422,2.415-.578,8.105-3.989,9.965-5.984-.601,0-1.12-.014-1.637.005-.335.013-.667.103-1.001.11-.944.022-1.591-.506-1.672-1.335-.085-.873.377-1.5,1.354-1.624,1.636-.208,3.279-.394,4.925-.466.799-.035,1.248-.322,1.512-1.031.191-.513.403-1.019.619-1.523.333-.776,1.002-1.128,1.768-.944.724.174,1.209.865,1.043,1.692-.131.648-.376,1.289-.669,1.885-1.755,3.571-4.577,6.153-7.84,8.297-3.05,2.003-6.329,3.551-9.77,4.762-.65.229-1.256.287-1.804-.195-.589-.519-.549-1.18-.367-1.861.273-1.028.546-2.055.889-3.349-.534.434-.884.724-1.24,1.008-2.143,1.711-4.997.874-5.981-1.676-.6-1.555-1.345-3.056-2.078-4.556-.138-.283-.498-.492-.799-.655-.56-.303-1.187-.493-1.723-.83-.708-.446-1.171-1.123-1.081-1.993.166-1.6.407-3.193.614-4.789.05-.387.09-.775.145-1.26-.244.06-.406.054-.501.13-2.027,1.621-4.098,3.192-6.048,4.901-1.271,1.114-1.236,1.637-.343,3.086,1.075,1.745,4.046,4.521,6.697,6.227.258-.584.506-1.156.762-1.724.477-1.061,1.235-1.452,2.077-1.077.862.385,1.116,1.178.667,2.234-1.698,3.989-3.253,8.027-4.173,12.277-.225,1.04-.38,2.11-.416,3.171-.049,1.442.502,2.146,1.909,2.329,1.261.164,2.568.249,3.827.111,6.091-.672,11.814-2.703,17.442-4.998,3.896-1.589,7.769-3.249,11.565-5.061,2.55-1.217,5.006-1.693,7.845-1.07,5.808,1.274,11.751,1.604,17.678,1.643,6.725.044,13.453-.208,20.179-.343.763-.015,1.528-.082,2.286-.169.872-.1,1.55.169,2.024.917v1.101Z" style="stroke-width:0px;"/><path d="M97.013,17.371c-2.919,2.961-5.832,5.928-8.758,8.883-4.885,4.933-9.778,9.858-14.667,14.788-.189.191-.367.392-.639.684.364.025.62.053.876.059,2.721.063,5.442.119,8.163.186.99.024,1.627.627,1.611,1.493-.016.869-.652,1.449-1.659,1.434-3.18-.048-6.359-.12-9.539-.181-.333-.006-.667,0-1.024,0-.07.21-.167.376-.175.547-.092,1.859-1.156,3.156-2.453,4.336-1.063.967-2.173,1.898-3.124,2.968-1.666,1.873-4.49,2.065-5.744-.679-2.254,1.116-4.512,2.235-6.773,3.35-.135.067-.286.104-.431.151-1.214.397-2.415.545-3.433-.438-.992-.959-.91-2.173-.55-3.34.894-2.895,2.557-5.328,4.744-7.398,2.307-2.183,4.943-3.876,7.854-5.153.392-.172.777-.485,1.028-.832,5.041-6.951,10.063-13.916,15.088-20.878.197-.273.381-.555.595-.814.567-.686,1.362-.827,2.035-.377.682.456.881,1.364.377,2.102-.862,1.261-1.775,2.487-2.67,3.726-4.385,6.069-8.78,12.131-13.144,18.216-.523.729-1.146,1.21-1.959,1.559-3.415,1.466-6.479,3.47-8.789,6.414-.998,1.273-1.678,2.795-2.503,4.204.082.081.164.162.246.243.403-.163.808-.322,1.209-.489,3.521-1.461,6.491-3.748,9.332-6.229.484-.422.977-.834,1.471-1.244.813-.674,1.617-.735,2.226-.179.667.609.667,1.358-.025,2.287-.821,1.103-1.66,2.194-2.486,3.294-.171.227-.317.473-.475.71.073.062.145.125.218.187,1.59-1.579,3.3-3.06,4.712-4.785.587-.717.622-1.945.757-2.96.143-1.079.548-1.913,1.333-2.699,8.151-8.155,16.266-16.345,24.394-24.523,1.042-1.048,1.792-1.015,2.748.094v1.285Z" style="stroke-width:0px;"/><path d="M97.013,49.493c-.415.345-.793.75-1.251,1.023-2.122,1.266-4.284,2.467-6.397,3.747-1.432.867-2.84,1.779-4.201,2.752-2.964,2.119-6.258,3.298-9.882,3.429-2.159.079-4.344.089-6.485-.153-2.09-.236-3.35-1.688-3.795-3.708-.122-.553.085-1.302.398-1.797.498-.788,1.123-1.554,1.854-2.124,2.067-1.614,4.182-3.173,6.343-4.66,1.966-1.353,4.232-1.575,6.51-1.175,1.475.259,2.52-.025,3.631-1.114,3.383-3.314,6.905-6.487,10.376-9.711,1.196-1.111,1.848-1.086,2.9.091v1.285c-.307.286-.613.572-.92.857-3.761,3.501-7.564,6.958-11.258,10.528-1.135,1.097-2.242,1.447-3.773,1.182-1.728-.299-3.551-.695-5.211.229-2.705,1.504-5.195,3.32-7.434,5.471-.547.525-.436.973.093,1.347.308.217.714.409,1.078.414,2.073.027,4.158.132,6.216-.052,2.828-.253,5.496-1.118,7.805-2.864.559-.422,1.057-.939,1.654-1.294,3.02-1.792,6.061-3.549,9.099-5.311,1.237-.718,1.775-.608,2.651.507v1.101Z" style="stroke-width:0px;"/></svg>