<?xml version="1.0" encoding="UTF-8"?><svg id="a" xmlns="http://www.w3.org/2000/svg" viewBox="0 0 100 100"><path d="M23.128,72.883c-.823,2.221-2.418,3.236-4.804,3.131-1.639-.072-3.283-.005-4.925-.016-2.38-.017-4.211-1.862-4.232-4.246-.003-.323-.008-.645,0-.968.026-.993.011-1.901-.732-2.772-.459-.538-.643-1.458-.649-2.209-.05-5.894-.038-11.789-.01-17.683.002-.463.232-.939.421-1.382.136-.318.405-.576.571-.883,1.23-2.278,2.84-4.131,5.416-4.93.104-.032.186-.132.283-.204-.185-.915-.572-1.451-1.642-1.345-1.045.104-2.111-.015-3.164.035-.764.036-1.331-.213-1.865-.759-1.764-1.802-1.777-1.786-.656-4.033,1.272-2.548.943-2.246,3.616-2.256,1.202-.004,2.406.033,3.606-.013.734-.028,1.308.179,1.783.738.284.334.609.635.929.936.623.586.687,1.253.315,1.992-.224.444-.408.915-.681,1.326-.376.565-.255,1.019.246,1.554.584-1.159,1.149-2.266,1.701-3.379,2.739-5.519,7.072-9.055,13.136-10.237,2.285-.445,4.655-.471,6.99-.645,3.214-.24,6.428-.498,9.646-.634,1.838-.077,3.69.019,5.529.132,3.947.243,7.894.512,11.835.833,7.026.572,12.128,4.062,15.378,10.293.618,1.184,1.204,2.384,1.827,3.621.576-.528.611-1.032.226-1.586-.016-.024-.022-.054-.036-.08-1.407-2.595-1.103-2.401,1.077-4.51.237-.229.69-.321,1.045-.327,1.788-.032,3.577-.001,5.365-.021.704-.008,1.166.302,1.468.907.431.864.865,1.727,1.29,2.594.336.687.224,1.302-.322,1.84-.397.391-.746.849-1.196,1.162-.382.266-.87.487-1.325.517-1.109.073-2.234.103-3.339.001-1.057-.098-1.575.324-1.759,1.393.625.314,1.275.638,1.923.965.287.145.63.236.849.452,1.845,1.821,3.816,3.703,3.893,6.45.156,5.626.034,11.26.057,16.89.005,1.204-.349,2.23-1.092,3.162-.181.227-.293.56-.312.853-.045.701-.012,1.407-.015,2.111-.012,2.506-1.822,4.336-4.308,4.349-1.583.008-3.17-.065-4.749.017-2.434.126-4.13-.81-5-3.369-3.347,1.238-6.344.051-9.117-1.47-.206.09-.251.096-.256.114-.562,1.849-1.964,1.931-3.604,1.921-9.47-.055-18.941-.047-28.411-.003-1.245.006-2.109-.287-2.504-1.527-.043-.134-.146-.249-.225-.371-.014-.022-.048-.03-.167-.101-1.438.61-2.888,1.522-4.451,1.806-1.563.283-3.24-.062-4.88-.133ZM80.036,39.356c-.663-1.306-1.229-2.555-1.911-3.738-2.149-3.729-5.283-6.296-9.479-7.275-2.232-.52-4.575-.623-6.877-.769-5.517-.351-11.016-1.084-16.573-.524-3.962.399-7.965.425-11.914.91-7.195.883-11.073,5.698-13.232,11.396h59.985ZM17.71,42.357c-1.4.698-2.75,1.333-4.059,2.045-.438.238-.798.645-1.144,1.02-1.666,1.807-2.278,3.944-1.938,6.368.02.144-.035.306.01.437.124.364.193.803.442,1.059,1.778,1.83,3.58,3.636,5.413,5.41.307.297.785.508,1.213.577,3.637.589,7.281,1.133,10.923,1.695,3.353.518,6.689,1.025,10.114.987,8.62-.096,17.242-.031,25.863-.032.293,0,.591.025.878-.019,5.434-.833,10.864-1.7,16.304-2.492,1.031-.15,1.782-.573,2.457-1.323.784-.87,1.652-1.665,2.477-2.499.905-.916,2.162-1.695,2.605-2.799.457-1.14.136-2.599.114-3.917-.005-.329-.115-.684-.269-.98-1.14-2.193-2.722-3.911-5.151-4.698-.22-.071-.444-.173-.627-.311-.498-.376-.829-.235-1.251.193-3.027,3.069-6.103,6.091-9.122,9.167-.744.759-1.555,1.265-2.581,1.541-4.697,1.262-9.286,3.114-14.309,2.504-.029-.004-.06.005-.088-.001-.475-.111-1.02-.111-1.413-.354-1.426-.882-2.938-1.229-4.599-1.062-.61.061-1.233-.02-1.846.021-.367.025-.786.07-1.079.262-1.541,1.011-3.219,1.304-5.023,1.139-1.622-.149-3.29-.067-4.862-.422-2.618-.59-5.166-1.486-7.765-2.172-.926-.245-1.627-.696-2.269-1.381-3.106-3.317-6.24-6.607-9.418-9.964ZM21.607,42.251c.17.214.248.33.343.43,2.457,2.597,4.909,5.199,7.386,7.778.244.254.622.425.969.528,2.435.719,4.889,1.373,7.315,2.121,2.074.64,4.185.267,6.278.35.159.006.343-.091.483-.187,1.625-1.115,3.434-1.364,5.351-1.211.786.063,1.589-.054,2.371.03.706.076,1.486.159,2.075.507,2.387,1.411,4.958,1.092,7.415.643,2.744-.501,5.407-1.457,8.094-2.254.423-.126.847-.395,1.164-.707,2.463-2.427,4.901-4.881,7.344-7.328.195-.196.375-.407.642-.698H21.607ZM63.195,66.254c.343.139.585.233.824.335,2.715,1.16,5.424,2.332,8.148,3.47.355.148.786.204,1.171.173,2.072-.167,4.141-.367,6.21-.571,1.855-.183,3.708-.387,5.721-.599-.111-.951.03-1.967-.369-2.681-.752-1.343-1.802-2.521-2.763-3.741-.144-.183-.489-.343-.711-.31-3.124.459-6.24.968-9.364,1.433-2.341.349-4.687.906-7.035.93-10.027.104-20.055.045-30.083.042-.38,0-.766.003-1.14-.054-5.058-.783-10.112-1.584-15.173-2.346-.265-.04-.672.154-.851.372-.76.929-1.378,1.986-2.2,2.85-1.02,1.072-.791,2.274-.739,3.522,3.831.381,7.583.784,11.343,1.102.714.06,1.507-.092,2.178-.362,2.414-.971,4.789-2.036,7.181-3.061.392-.168.793-.314,1.239-.49.386.902.736,1.722,1.101,2.575-.928.421-1.777.806-2.625,1.191.025.08.051.161.076.241h29.3c.025-.08.051-.161.076-.241-.866-.398-1.732-.796-2.629-1.207.381-.881.726-1.679,1.113-2.573ZM12.021,67.465c-.213-1.255.131-2.21.887-3.088.781-.907,1.449-1.91,2.022-2.678-1.509-1.503-2.977-2.964-4.358-4.339,0,2.525.019,5.248-.01,7.971-.01.996.373,1.673,1.459,2.134ZM84.916,61.531c.295.399.649.825.945,1.287.916,1.428,2.566,2.505,2.093,4.608,1.182-.56,1.436-.93,1.438-2.056.006-2.577.004-5.154-.001-7.731,0-.181-.049-.362-.07-.506-1.475,1.472-2.922,2.918-4.405,4.398ZM20.063,72.775c-.022-.096-.043-.191-.065-.287-1.21-.123-2.43-.183-3.626-.385-1.46-.247-3.06.116-4.344-.974-.102,1.459.429,2.05,1.833,2.056,1.578.008,3.158.034,4.734-.017.493-.016.979-.256,1.468-.393ZM87.954,71.318c-2.591,1.065-5.383.591-8.022,1.354.453.235.937.48,1.429.496,1.577.052,3.156.025,4.734.018,1.408-.006,1.936-.588,1.859-1.868ZM9.552,36.448c.267.045.536.124.806.13.848.017,1.707-.072,2.544.027.994.117,1.336-.386,1.537-1.326-.332-.039-.605-.095-.878-.099-.819-.012-1.646.062-2.457-.022-.948-.098-1.412.289-1.552,1.291ZM90.428,36.512c-.18-1.109-.68-1.454-1.609-1.356-.809.086-1.635.007-2.453.024-.27.006-.538.083-.806.127.14.998.598,1.406,1.548,1.292.663-.08,1.343-.007,2.015-.018.418-.007.835-.043,1.305-.069Z" style="stroke-width:0px;"/><path d="M14.954,45.594c.195.091.559.211.87.413,3.115,2.024,6.226,4.053,9.327,6.098,1.24.818,1.247,1.861.041,2.732-1.352.976-2.724,1.925-4.07,2.91-.699.511-1.35.554-2.098.08-1.704-1.081-3.434-2.12-5.158-3.168-.572-.347-.908-.811-.864-1.506.131-2.074.246-4.15.395-6.223.055-.76.678-1.322,1.558-1.337ZM16.087,49.581c-.074.96-.156,1.768-.182,2.577-.006.183.135.447.289.546,1.249.796,2.518,1.562,3.785,2.34.707-.506,1.369-.979,2.126-1.521-2.014-1.319-3.957-2.592-6.018-3.942Z" style="stroke-width:0px;"/><path d="M86.974,52.644c.333,1.056-.402,1.809-1.556,2.444-1.509.832-2.962,1.769-4.413,2.701-.764.491-1.433.497-2.173-.052-1.363-1.011-2.767-1.966-4.142-2.961-1.105-.8-1.084-1.868.062-2.624,3.127-2.061,6.259-4.112,9.399-6.152,1.269-.825,2.326-.295,2.44,1.206.129,1.693.239,3.387.383,5.438ZM77.863,53.524c.66.469,1.208.902,1.804,1.257.186.111.551.099.745-.012,1.111-.639,2.2-1.316,3.282-2.004.169-.108.376-.338.371-.506-.026-.852-.116-1.702-.193-2.664-2.051,1.341-3.993,2.611-6.009,3.929Z" style="stroke-width:0px;"/><path d="M51.324,59.071h-2.698v-2.736h2.698v2.736Z" style="stroke-width:0px;"/></svg>