<?xml version="1.0" encoding="UTF-8"?><svg id="a" xmlns="http://www.w3.org/2000/svg" viewBox="0 0 100 100"><path d="M82.898,60.879c1.448.086,2.785.012,4.054.272,2.506.513,4.163,2.699,4.169,5.256.009,4.57.008,9.14,0,13.71-.005,3.149-2.374,5.509-5.521,5.523-.398.002-.796,0-1.326,0,0,1.22.001,2.407,0,3.593-.002,1.498-.385,1.89-1.848,1.891-2.941.001-5.883.003-8.824,0-1.207-.002-1.663-.448-1.671-1.636-.008-1.25-.002-2.5-.002-3.798H28.066c0,.483-.002.984,0,1.484.024,4.267.308,3.971-3.988,3.953-2.227-.009-4.455.001-6.682-.003-1.203-.002-1.66-.452-1.666-1.64-.006-1.25-.001-2.5-.001-3.753-.944-.086-1.836-.069-2.68-.263-2.497-.574-4.165-2.719-4.17-5.27-.008-4.57-.008-9.14,0-13.71.005-3.145,2.375-5.521,5.521-5.522,17.876-.005,35.753-.002,53.629-.002.341,0,.683,0,1.158,0,0-.334,0-.634,0-.934.002-3.685.003-7.369.005-11.054.001-1.871.812-2.828,2.737-3.161,0-.325,0-.663,0-1.002,0-10.597-.004-21.193.005-31.79.002-2.402,1.794-4.172,4.159-4.161,2.263.01,4.056,1.797,4.06,4.089.01,6.855.004,13.71.004,20.565,0,4.082,0,8.165,0,12.007.829.546,1.705.862,2.145,1.486.43.61.56,1.531.572,2.32.057,3.541.025,7.083.025,10.625,0,.308,0,.615,0,.924ZM50.024,63.704c-11.594,0-23.187,0-34.781,0-2.719,0-3.624.916-3.624,3.665,0,4.084-.002,8.169,0,12.253.001,2.21,1.05,3.278,3.234,3.278,23.444.002,46.889.002,70.333,0,2.113,0,3.195-1.1,3.197-3.235.003-4.17.001-8.34,0-12.51,0-2.479-.983-3.451-3.493-3.451-11.622,0-23.244,0-34.867,0ZM80.095,60.925v-12.234h-8.119v12.234h8.119ZM77.417,45.84c0-.314,0-.567,0-.819,0-10.508-.001-21.016-.002-31.524,0-.171.009-.344-.008-.514-.083-.805-.667-1.379-1.379-1.366-.723.013-1.282.589-1.349,1.399-.014.17-.005.342-.005.514,0,10.48,0,20.959,0,31.439v.872h2.743ZM18.509,88.325h6.748v-2.639h-6.748v2.639ZM74.712,88.325h6.748v-2.639h-6.748v2.639Z" style="stroke-width:0px;"/><path d="M37.325,24.324c9.354.18,17.634,3.567,24.535,10.278.821.799.898,1.564.241,2.218-.669.665-1.302.625-2.144-.199-4.576-4.479-9.946-7.528-16.244-8.759-10.93-2.136-20.533.63-28.807,8.064-.276.248-.535.515-.807.767-.798.737-1.434.771-2.087.117-.637-.639-.621-1.462.213-2.143,2.138-1.747,4.216-3.604,6.524-5.099,5.309-3.439,12.01-5.25,18.578-5.242Z" style="stroke-width:0px;"/><path d="M37.079,32.984c7.29.088,13.55,2.684,18.802,7.739.538.518.859,1.077.468,1.817-.314.594-.837.911-1.484.74-.383-.102-.744-.4-1.042-.686-3.401-3.254-7.366-5.458-12.001-6.34-8.132-1.547-15.225.596-21.321,6.153-.19.173-.363.365-.554.535-.624.554-1.407.517-1.971-.087-.54-.579-.539-1.311.047-1.903,1.9-1.919,4.033-3.538,6.419-4.802,3.947-2.091,8.15-3.196,12.637-3.166Z" style="stroke-width:0px;"/><path d="M36.769,41.565c5.235.1,9.52,1.806,13.094,5.252.75.723.852,1.376.35,2.025-.619.802-1.414.82-2.265-.009-1.833-1.786-3.953-3.11-6.412-3.794-5.731-1.594-10.804-.335-15.228,3.646-.404.363-1.046.739-1.527.683-1.153-.135-1.534-1.513-.706-2.345,2.911-2.924,6.409-4.697,10.506-5.25.818-.11,1.644-.157,2.187-.207Z" style="stroke-width:0px;"/><path d="M37.07,50.177c2.624.084,4.936.971,6.85,2.822.704.681.778,1.404.228,2.035-.557.639-1.356.64-2.111.002-3.278-2.767-6.688-2.768-9.947-.002-.759.644-1.546.649-2.112.012-.555-.624-.489-1.368.206-2.035,1.917-1.841,4.221-2.753,6.886-2.834Z" style="stroke-width:0px;"/><path d="M36.291,70.586c-.006,2.299-1.824,4.093-4.137,4.085-2.288-.008-4.092-1.838-4.085-4.144.007-2.297,1.823-4.084,4.144-4.078,2.309.006,4.085,1.807,4.078,4.137ZM33.541,70.548c-.008-.712-.686-1.373-1.388-1.353-.707.021-1.363.713-1.334,1.41.028.671.673,1.296,1.349,1.307.707.011,1.38-.658,1.373-1.365Z" style="stroke-width:0px;"/><path d="M25.324,70.595c-.008,2.289-1.835,4.085-4.148,4.077-2.292-.008-4.082-1.83-4.074-4.147.008-2.294,1.829-4.085,4.145-4.075,2.294.01,4.085,1.83,4.078,4.145ZM22.575,70.525c-.023-.705-.721-1.361-1.416-1.329-.705.032-1.349.74-1.305,1.435.043.681.694,1.291,1.368,1.283.71-.009,1.376-.692,1.353-1.388Z" style="stroke-width:0px;"/><path d="M39.035,70.53c.006-2.294,1.825-4.086,4.141-4.08,2.3.006,4.088,1.819,4.081,4.138-.007,2.295-1.828,4.092-4.139,4.084-2.291-.008-4.089-1.832-4.083-4.142ZM44.505,70.539c-.015-.709-.705-1.371-1.399-1.343-.702.028-1.359.735-1.322,1.423.036.674.682,1.29,1.359,1.294.711.004,1.376-.667,1.361-1.374Z" style="stroke-width:0px;"/><path d="M57.451,71.93c-1.968,0-3.937.006-5.905-.002-1.002-.004-1.562-.533-1.537-1.417.024-.844.565-1.318,1.541-1.319,3.994-.004,7.988-.004,11.981,0,.974.001,1.515.478,1.538,1.323.023.879-.541,1.408-1.542,1.412-2.025.008-4.051.002-6.076.002Z" style="stroke-width:0px;"/><path d="M71.622,69.192c.598,0,1.197-.023,1.794.006.747.036,1.243.594,1.248,1.348.005.753-.484,1.347-1.228,1.369-1.223.037-2.449.035-3.673.001-.751-.021-1.241-.597-1.247-1.351-.006-.787.511-1.341,1.312-1.37.597-.021,1.196-.004,1.794-.004Z" style="stroke-width:0px;"/></svg>