<?xml version="1.0" encoding="UTF-8"?><svg id="a" xmlns="http://www.w3.org/2000/svg" viewBox="0 0 100 100"><path d="M65.638,51.778c0,4.269,0,8.389,0,12.51,0,1.372-.196,2.699-.947,3.884-1.288,2.03-3.124,3.124-5.545,3.126-9.386.01-18.771-.003-28.157.026-.49.002-1.06.206-1.455.501-4.937,3.687-9.849,7.409-14.768,11.122-.096.072-.194.142-.29.215-.681.516-1.377.578-2.063.029-.608-.487-.715-1.313-.258-2.128,1.627-2.909,3.27-5.809,4.904-8.714.17-.303.323-.615.547-1.045-2.303,0-4.459.002-6.614,0-4.117-.004-6.835-2.716-6.837-6.829-.003-7.13-.002-14.261,0-21.391,0-4.443,2.67-7.109,7.142-7.113,7.28-.007,14.56-.002,21.84-.002h1.225c0-.404-.002-.749,0-1.095.027-3.699-.093-7.407.121-11.096.243-4.187,3.815-7.331,8.042-7.343,6.979-.019,13.958-.006,20.937-.006,7.942,0,15.883-.002,23.825,0,5.079.002,8.554,3.473,8.557,8.547.004,6.077.004,12.155,0,18.232-.003,5.036-3.519,8.551-8.567,8.569-1.563.006-3.125,0-4.861,0,.195.378.328.656.479.924,1.604,2.854,3.213,5.705,4.816,8.559.581,1.035.534,1.799-.128,2.362-.653.556-1.344.506-2.281-.2-4.828-3.634-9.662-7.262-14.468-10.924-.684-.521-1.355-.79-2.216-.735-.952.062-1.91.014-2.98.014ZM18.682,75.842c.053.038.106.077.159.115,3.091-2.338,6.191-4.663,9.265-7.023.654-.502,1.314-.726,2.146-.724,9.476.024,18.952.018,28.428.013,2.47-.002,3.793-1.329,3.794-3.779.003-7.13-.054-14.261.032-21.391.028-2.342-1.367-3.94-3.933-3.933-15.793.042-31.586.051-47.379-.009-2.478-.009-3.973,1.557-3.954,3.939.055,7.07.018,14.14.021,21.211.001,2.663,1.315,3.96,4.01,3.963,2.828.004,5.66.1,8.482-.034,1.922-.091,2.577,1.41,1.675,2.821-.996,1.558-1.837,3.216-2.745,4.831ZM37.524,35.917c.269.023.416.047.562.047,6.768.002,13.537-.009,20.305.021.662.003.797-.363.966-.825,1.388-3.801,2.791-7.596,4.163-11.402.273-.759.726-1.291,1.529-1.313.852-.023,1.334.522,1.623,1.31,1.818,4.954,3.659,9.899,5.485,14.85.401,1.086.045,2.017-.85,2.317-.89.298-1.677-.149-2.078-1.213-.519-1.375-1.04-2.749-1.513-4.14-.166-.489-.422-.65-.917-.63-.811.033-1.624.009-2.436.009q-1.675,0-2.188,1.609c-.016.049.014.113.027.196,1.621.936,2.766,2.284,3.191,4.143.172.753.219,1.546.233,2.323.033,1.764.01,3.529.01,5.388,1.37,0,2.627.034,3.881-.012.889-.033,1.617.22,2.326.764,2.909,2.233,5.849,4.426,8.781,6.629.167.125.362.212.544.317-.796-1.709-1.695-3.296-2.585-4.889-.943-1.687-.277-2.803,1.678-2.808,2.406-.006,4.813.014,7.219-.006,3.11-.025,5.226-2.077,5.245-5.194.038-6.197.016-12.395.009-18.593-.002-1.795-.676-3.277-2.151-4.347-1.047-.76-2.252-.922-3.509-.922-14.65.005-29.299.003-43.949.006-.36,0-.722.013-1.08.053-2.273.253-3.995,1.756-4.426,3.978-.153.786-.092,1.617-.094,2.427-.008,3.274-.004,6.549-.004,9.908ZM66.302,31.748c-.411-1.08-.778-2.047-1.215-3.196-.427,1.189-.776,2.161-1.148,3.196h2.363Z" style="stroke-width:0px;"/><path d="M35.19,56.586c2.012-2.071,3.458-4.339,4.281-7.128-.9,0-1.701,0-2.503,0-2.797,0-5.594.003-8.391-.002-1.066-.002-1.752-.585-1.784-1.49-.033-.927.684-1.576,1.784-1.584,1.557-.011,3.114-.003,4.79-.003,0-.674-.021-1.267.005-1.858.043-.999.656-1.586,1.591-1.56.864.024,1.453.645,1.492,1.584.012.3.003.601.003.902,0,.268,0,.535,0,.931,1.511,0,2.972-.002,4.434,0,1.755.003,2.299.704,1.952,2.446-.749,3.764-2.58,6.947-5.32,9.852,1.287.795,2.521,1.562,3.762,2.32.281.171.595.288.872.465.785.499,1.03,1.358.618,2.102-.414.746-1.294,1.078-2.086.624-1.638-.939-3.246-1.936-4.821-2.977-.501-.331-.786-.355-1.323-.032-1.744,1.05-3.531,2.034-5.343,2.961-.989.506-1.912.154-2.273-.697-.369-.87.04-1.655,1.05-2.158,1.601-.798,3.184-1.632,4.776-2.453-1.287-1.616-2.458-3.049-3.582-4.519-.398-.521-.714-1.113-1.007-1.703-.415-.834-.153-1.699.579-2.108.768-.429,1.687-.177,2.152.661,1.118,2.016,2.548,3.774,4.293,5.422Z" style="stroke-width:0px;"/></svg>