<svg xmlns="http://www.w3.org/2000/svg" id="Layer_1" data-name="Layer 1" viewBox="0 0 100 100"><path d="M76.2,27.89c.99,1.54.38,2.77-.62,3.73-4.72,4.52-9.02,9.46-14.02,13.68-.31.26-.87.38-.38.93.81.91,1.59,1.85,2.47,2.7.91.88,1.4-.1,1.91-.61,3-2.99,5.98-6,8.97-9,.44-.44.95-.83,1.47-1.27.69,2.08.21,2.99-2.05,5.07-2.58,2.38-5.05,4.87-7.55,7.34-.74.73-.25,5.21.62,5.48.69.21,1.15-.44,1.6-.88,2.3-2.26,4.58-4.54,6.87-6.81.19-.19.42-.32.72-.55.52,1.66.1,2.82-1.06,3.92-2.01,1.92-3.89,3.98-6.11,6.28,2.22,0,4.18-.01,6.14,0,.59,0,1.42-.23,1.42.81,0,.95-.48,1.4-1.48,1.38-2.66-.04-5.32-.05-7.98.01-1.11.02-1.53-.36-1.55-1.48-.14-6.31-5.89-13.06-13.26-13.94-5.88-.7-12.77,2.75-15.51,8-.99,1.9-1.59,3.81-1.72,5.9-.07,1.2-.61,1.57-1.78,1.53-2.58-.08-5.17-.01-7.76-.04-.8,0-1.85.29-1.8-1.14.05-1.24.97-1.02,1.72-1.03,1.69-.02,3.37,0,5.06,0,.14-.24.27-.48.41-.72-1.91-1.78-3.76-3.63-5.74-5.33-1.29-1.11-1.77-2.36-1.32-4.14,1.72,1.24,3.34,2.5,4.58,4.16,1.14,1.53,2.76,2.5,4.06,3.84.32.33.72.76,1.13-.05,1.36-2.7,1.09-4.22-1.1-6.39-2.65-2.63-5.22-5.33-7.88-7.93-.95-.93-1.12-1.89-.67-3.24,1.63.85,2.74,2.19,3.94,3.34,2.38,2.26,4.59,4.69,6.84,7.08.89.95,1.52,1.01,2.4-.1,2.02-2.52,2.04-2.46-.27-4.7-4.06-3.93-8.06-7.94-12.16-11.83-1.13-1.07-1.07-2.23-.92-3.55,1.04-.15,1.45.68,1.94,1.2,4.43,4.78,9.46,8.97,13.66,13.98.9,1.07,4.91.61,5.6-.62.4-.71-.32-1.03-.68-1.39-4.62-4.61-9.27-9.2-13.91-13.8-.61-.61-1.19-1.24-1.76-1.88-.37-.42-.9-.87-.24-1.44.5-.43,1.09-.78,1.73-.24.55.46,1.08.94,1.59,1.45,5.01,5.04,10,10.09,15.04,15.1.51.5.99,1.5,1.89,1.06.71-.35.37-1.3.45-1.99.29-2.36-.42-4.03-2.36-5.73-4.19-3.68-7.97-7.83-11.92-11.79-.53-.53-1.08-1.11-.42-1.84.69-.76,1.43-.46,2.06.17,3.12,3.15,6.24,6.32,9.35,9.48.25.26.44.57.7.82.66.63,1.31,1.75,2.21,1.39.82-.33.27-1.55.38-2.37.32-2.41-.48-4.23-2.48-5.76-2.15-1.65-3.66-4.02-5.87-5.65-.55-.4-1.04-.95-.37-1.59.58-.55,1.32-1.02,2.07-.26,1.16,1.17,2.28,2.38,3.42,3.58.25.26.43.58.7.82.62.55,1.21,1.59,2.06,1.2.68-.31.44-1.43.45-2.21.02-2.01-.01-4.02.04-6.03.02-.69-.4-1.76.93-1.75,1.31.01,1.14,1.04,1.15,1.88.02,2.3,0,4.6.03,6.89,0,.46-.25,1.1.35,1.34.56.22.91-.36,1.23-.68,1.54-1.5,3.07-3.01,4.51-4.61.85-.95,1.75-1.14,2.54-.23.94,1.09-.4,1.38-.93,1.89-2.37,2.29-4.62,4.69-6.98,6.99-1.66,1.62-.74,4.13-.57,6.19.09,1.13,1.04.04,1.35-.26,2.68-2.6,5.3-5.26,7.93-7.91,1.01-1.02,2.03-2.03,3.02-3.07.6-.63,1.22-1.11,1.98-.28.74.8.25,1.4-.38,2-4.31,4.18-8.61,8.38-12.91,12.59-.92.9-1.61,5.36-1.08,6.48.28.6.66.45,1.02.17.73-.56,1.49-1.12,2.13-1.77,4.43-4.48,8.83-9,13.26-13.48.74-.75,1.48-1.53,2.52-1.92.49-.18.96-.36,1.39.09.59.61-.14.85-.38,1.21-1.69,2.52-4,4.51-6.15,6.56-2.95,2.82-5.51,6.02-8.8,8.5-1.66,1.25-1.39,1.79.48,2.82,1.79.98,2.98.69,4.42-.8,4.88-5.05,9.92-9.93,14.99-14.95Z" style="fill: #cea581; stroke-width: 0px;"></path><path d="M64.69,69.1c-3.23.02-6.12-.78-8.96-1.84-3.7-1.39-7.52-1.57-11.1.03-6.79,3.03-13.29,1.83-19.81-.72-.98-.38-1.11-1.1-.96-1.89.21-1.07,1.01-.44,1.56-.35,3.11.51,5.93,1.99,9.13,2.36,2.9.34,5.57.05,8.19-1.03,4.81-2,9.57-2.17,14.4-.08,4.68,2.02,9.36,1.59,14-.24,1.2-.47,2.41-.95,3.72-.99.49-.02,1.23-.6,1.41.32.14.69.11,1.59-.75,1.81-3.66.91-7.04,3-10.83,2.63Z" style="fill: #60c2c8; stroke-width: 0px;"></path><path d="M63.44,76.3c-2.14-.46-4.57-.54-6.82-1.7-4.45-2.3-9.14-1.98-13.47.05-4.38,2.05-8.53,1.79-12.83.27-1.01-.36-1.99-.82-2.91-1.36-.69-.41-1.31-1.18-.93-1.95.33-.66,1.17-.19,1.75,0,2.71.88,5.36,1.77,8.29,2.07,2.6.26,4.77-.5,6.97-1.34,4.27-1.64,8.51-1.51,12.71-.09,4.96,1.67,9.78,1.92,14.66-.25.9-.4,2.46-1.48,2.96-.17.43,1.11-1.16,1.82-2.3,2.39-2.49,1.22-5.12,1.79-8.08,2.1Z" style="fill: #60c2c8; stroke-width: 0px;"></path><path d="M67.39,80.2c-1.49,1.9-2.78,2.85-4.82,2.67-2.1-.18-4.11-.63-6.03-1.42-4.26-1.75-8.48-1.63-12.76-.07-1.47.54-2.99,1.03-4.53,1.32-2.35.45-4.61.34-6.06-2.04.05-.09.13-.3.18-.29,4.07.35,7.84-.53,11.69-1.98,3.4-1.28,7.25-1.34,10.7.22,3.59,1.63,7.25,2.07,11.63,1.59Z" style="fill: #60c2c8; stroke-width: 0px;"></path><path d="M56.66,86.25c-4.47,1.2-8.64,1.11-12.98.02,2.79-2.66,9.9-2.66,12.98-.02Z" style="fill: #60c2c8; stroke-width: 0px;"></path></svg>