<?xml version="1.0" encoding="UTF-8"?><svg id="a" xmlns="http://www.w3.org/2000/svg" viewBox="0 0 100 100"><path d="M50.104,82.147c-3.609-.121-6.987.994-10.402,1.905-2.641.704-5.3,1.351-8.064,1.011-4.897-.603-8.748-4.073-9.883-8.913-.991-4.228-.059-7.971,3.103-11.008,4.633-4.45,9.308-8.857,14.005-13.239,3.203-2.988,7.058-4.422,11.423-4.352,3.971.063,7.555,1.358,10.484,4.058,4.915,4.531,9.804,9.096,14.565,13.789,3.391,3.343,4.082,7.499,2.488,11.903-1.581,4.369-4.664,7.126-9.417,7.739-2.514.324-4.878-.464-7.278-.987-2.687-.585-5.371-1.191-8.072-1.709-.961-.184-1.966-.138-2.951-.197ZM50.019,50.453c-3.449.002-6.7,1.203-9.139,3.48-4.653,4.343-9.293,8.701-13.909,13.084-2.773,2.633-3.551,6.487-2.088,9.913,1.452,3.401,4.725,5.444,8.522,5.334,2.96-.086,5.776-.921,8.597-1.687,4.459-1.211,8.954-1.697,13.514-.76,2.863.588,5.697,1.32,8.543,1.995,1.737.412,3.462.669,5.237.148,6.519-1.913,8.634-10.041,3.761-14.788-4.601-4.482-9.284-8.88-13.989-13.253-2.526-2.348-5.6-3.443-9.048-3.466Z" style="stroke-width:0px;"/><path d="M52.572,27.838c.083-3.008.734-6.307,2.792-9.177,3.641-5.076,9.975-5.101,13.599-.006,2.432,3.419,3.071,7.343,2.729,11.441-.23,2.76-1.093,5.333-2.711,7.614-3.781,5.332-10.032,5.276-13.707-.129-1.904-2.801-2.701-5.935-2.702-9.742ZM68.876,28.314c-.021-3.009-.546-5.832-2.377-8.256-2.34-3.098-5.953-3.209-8.44-.244-.588.701-1.071,1.527-1.437,2.368-1.189,2.734-1.407,5.613-.998,8.536.288,2.06.909,4.02,2.212,5.693,2.499,3.207,6.296,3.174,8.723-.094,1.772-2.386,2.285-5.154,2.317-8.003Z" style="stroke-width:0px;"/><path d="M47.404,28.402c-.058,3.699-.999,7.102-3.355,10.034-3.41,4.244-8.886,4.327-12.37.136-2.891-3.478-3.79-7.572-3.4-11.983.261-2.958,1.059-5.758,2.893-8.173,3.631-4.782,9.797-4.726,13.36.12,1.836,2.497,2.924,6.238,2.872,9.867ZM31.106,28.222c-.02,2.445.392,4.8,1.579,6.964,1.118,2.038,2.679,3.611,5.151,3.598,2.431-.013,4.056-1.535,5.06-3.586,2.256-4.607,2.257-9.302.014-13.913-.998-2.052-2.618-3.576-5.053-3.599-2.477-.023-4.036,1.54-5.162,3.576-1.195,2.161-1.605,4.515-1.59,6.96Z" style="stroke-width:0px;"/><path d="M26.152,47.005c-.018,2.066-.357,4.053-1.29,5.905-2.076,4.12-6.58,5.082-10.131,2.131-2.817-2.341-4.128-5.536-4.836-9.017-.546-2.682-.547-5.364.339-7.992.511-1.516,1.326-2.838,2.621-3.816,2.293-1.733,5.403-1.637,7.807.299,3.127,2.519,4.64,5.93,5.242,9.807.137.886.168,1.788.249,2.683ZM23.327,46.726c-.049-.489-.077-1.218-.201-1.929-.47-2.697-1.345-5.242-3.275-7.262-2.683-2.809-5.915-2.03-7.024,1.687-.974,3.263-.402,6.432.813,9.519.634,1.612,1.524,3.068,2.913,4.157,2.148,1.684,4.47,1.189,5.729-1.221.771-1.475.987-3.076,1.045-4.951Z" style="stroke-width:0px;"/><path d="M73.864,47.115c.035-4.167,1.164-7.96,3.92-11.165,1.278-1.486,2.819-2.622,4.821-2.891,2.8-.376,4.836.847,6.256,3.194,1.458,2.411,1.784,5.082,1.553,7.812-.275,3.258-1.252,6.308-3.222,8.97-1.317,1.779-2.973,3.127-5.208,3.525-2.792.497-5.287-.8-6.745-3.408-1.049-1.876-1.411-3.911-1.374-6.038ZM87.559,42.763c-.001-1.809-.133-3.598-1.139-5.186-1.023-1.615-2.762-2.205-4.445-1.32-.922.485-1.825,1.188-2.46,2.008-2.29,2.955-3.068,6.406-2.735,10.071.112,1.233.499,2.521,1.08,3.615,1.093,2.059,3.271,2.519,5.184,1.186.768-.535,1.469-1.249,2.004-2.018,1.739-2.496,2.543-5.307,2.511-8.355Z" style="stroke-width:0px;"/></svg>