<svg xmlns="http://www.w3.org/2000/svg" xmlns:xlink="http://www.w3.org/1999/xlink" id="Layer_1" data-name="Layer 1" viewBox="0 0 100 31.29"><defs><style>      .cls-1 {        clip-path: url(#clippath);      }      .cls-2 {        fill: none;      }      .cls-2, .cls-3, .cls-4 {        stroke-width: 0px;      }      .cls-3 {        fill: #cba983;      }      .cls-4 {        fill: #fff;      }    </style><clipPath id="clippath"><rect class="cls-2" x="1.43" y="1.38" width="19.78" height="27.95"></rect></clipPath></defs><g><path class="cls-4" d="M82.37,16.52c0-1.44.04-2.75-.01-4.06-.03-.69.4-.52.77-.54.4-.02.7-.03.68.56-.04,2.18-.03,4.37,0,6.55,0,.43-.1.57-.55.56-.52,0-.92.03-1-.69-.07-.62-.56-1.04-1.03-1.44-1.02-.86-2.23-1.45-3.33-2.44v1.14c0,.83,0,1.66,0,2.5,0,.92-.26,1.12-1.17.92-.24-.05-.23-.19-.23-.36,0-2.31,0-4.62,0-6.93,0-.31.13-.38.41-.39.56,0,1.07-.11,1.14.75.05.63.56,1.11,1.06,1.49,1.04.78,2.11,1.53,3.27,2.36Z"></path><path class="cls-4" d="M47.56,15.77c0,1.1-.02,2.2,0,3.31,0,.41-.11.58-.52.52-.16-.02-.33-.02-.5,0-.34.04-.42-.12-.42-.43.02-.81,0-1.62.01-2.43,0-.34-.11-.46-.43-.38-.99.24-1.98.49-2.97.72-.28.06-.21.27-.22.44,0,.54-.02,1.08,0,1.62.01.34-.07.51-.44.47-.18-.02-.38-.02-.56,0-.35.04-.41-.12-.41-.43.01-2.27.01-4.53,0-6.8,0-.32.11-.42.43-.44.98-.04.98-.05.98.94,0,.77.01,1.54,0,2.31,0,.35.09.51.46.41.94-.25,1.87-.56,2.85-.65.28-.02.31-.21.31-.44,0-.69.02-1.37,0-2.06-.01-.37.1-.51.49-.5,1.16.03.92-.08.94.92.01.98,0,1.95,0,2.93Z"></path><path class="cls-4" d="M90.45,16.51c0,.77-.04,1.54.01,2.31.04.61-.11.83-.77.79-.49-.03-.67-.11-.66-.65.04-1.66,0-3.33.03-4.99.01-.51-.12-.71-.65-.66-.37.04-.75-.03-1.12.02-.61.08-.71-.18-.71-.72,0-.54.12-.71.69-.7,1.68.04,3.37.05,5.06,0,.64-.02.53.34.52.7,0,.35.13.81-.51.71-.04,0-.08,0-.12,0-.57.04-1.34-.25-1.67.12-.28.32-.09,1.07-.1,1.62,0,.48,0,.96,0,1.43Z"></path><path class="cls-4" d="M48.24,15.77c0-1.12.03-2.24-.01-3.36-.02-.66.42-.47.75-.48.34-.02.69-.11.68.49-.03,2.24-.02,4.48,0,6.73,0,.36-.11.45-.46.45-.95,0-.95.02-.95-.95,0-.95,0-1.91,0-2.86Z"></path><path class="cls-4" d="M86.01,15.77c0,1.1-.02,2.2,0,3.3,0,.4-.1.54-.52.52-1.1-.04-.88.11-.89-.88-.01-2.08.02-4.15-.02-6.23-.01-.59.28-.58.68-.56.37.02.79-.13.75.55-.06,1.1-.02,2.2-.02,3.3Z"></path><path class="cls-4" d="M62.72,27.33c-.71-.66-1.29-1.19-1.99-1.83,0,.56,0,.96,0,1.37,0,.17,0,.33-.26.33-.19,0-.34-.04-.34-.26,0-.88,0-1.77,0-2.83.71.65,1.28,1.18,1.9,1.76.13-.43.05-.82.07-1.19,0-.21-.01-.43.29-.45.36-.02.32.23.32.47,0,.81,0,1.62,0,2.63Z"></path><path class="cls-4" d="M70.84,27.24c-.3,0-.58-.05-.84-.2-.16-.09-.37-.17-.25-.42.11-.23.28-.28.51-.15.25.15.52.28.83.19.16-.05.33-.13.32-.33,0-.17-.15-.23-.3-.27-.28-.07-.57-.13-.84-.22-.41-.13-.6-.42-.57-.85.03-.42.28-.64.65-.74.43-.12.87-.1,1.27.12.15.08.3.17.19.39-.09.16-.22.27-.41.18-.23-.11-.47-.18-.72-.15-.14.01-.31.04-.34.22-.03.18.12.25.26.3.16.05.32.09.48.13.74.17,1.02.46.96.99-.06.55-.46.82-1.2.81Z"></path><path class="cls-4" d="M64.72,24.2c.35,0,.66.1.92.31.16.13.46.27.25.53-.14.17-.4.2-.6-.02-.13-.14-.3-.21-.5-.23-.42-.03-.74.15-.9.53-.18.42-.12.82.25,1.13.32.27.67.32,1.03.08.09-.06.15-.14.24-.19.19-.11.38-.05.5.09.15.18-.05.3-.16.41-.45.44-1.25.54-1.79.22-.64-.37-.93-1.06-.74-1.75.17-.63.83-1.11,1.49-1.1Z"></path><path class="cls-4" d="M52.74,24.22c.25,0,.5,0,.75,0,.21,0,.37.04.36.3,0,.23-.17.28-.34.26-.51-.07-.52.24-.51.61.02.43.01.87,0,1.31,0,.2.11.49-.27.5-.41,0-.32-.3-.32-.53-.01-.46-.02-.91,0-1.37.02-.35-.06-.57-.47-.52-.21.02-.37-.05-.35-.31.02-.28.22-.25.41-.25.25,0,.5,0,.75,0Z"></path><path class="cls-4" d="M32.67,15.92c-.22-.3-.17-.47-.03-.76.75-1.53-.19-3.13-1.89-3.22-.37-.02-.75,0-1.12,0-.4,0-.79.01-1.19,0-.3-.01-.45.06-.44.41.02,2.29.02,4.58.02,6.86,0,.24.04.39.34.38.87-.02,1.75.04,2.62-.03,1.86-.16,2.78-2.14,1.7-3.64ZM30.33,13.32c.09,0,.28,0,.46.03.39.07.63.32.67.71.04.4-.16.68-.54.81-.42.15-.87.06-1.3.07-.2,0-.22-.15-.23-.3,0-.17,0-.33,0-.5.01-.95-.12-.79.94-.82ZM31.1,18.11c-.47.14-.95.08-1.43.09-.23,0-.28-.14-.28-.32,0-.21,0-.42,0-.62,0-.21,0-.42,0-.62,0-.17.05-.29.24-.28.5.01,1-.07,1.49.09.4.14.61.43.6.85,0,.42-.22.7-.63.83Z"></path><path class="cls-4" d="M67.54,15.92c-.22-.3-.17-.47-.03-.76.75-1.53-.19-3.13-1.89-3.22-.37-.02-.75,0-1.12,0-.4,0-.79.01-1.19,0-.3-.01-.45.06-.44.41.02,2.29.02,4.58.02,6.86,0,.24.04.39.34.38.87-.02,1.75.04,2.62-.03,1.86-.16,2.79-2.14,1.7-3.64ZM64.26,14.23c.02-1.03-.12-.89.86-.91.83,0,1.23.27,1.22.82,0,.56-.43.75-1.37.82-.73.05-.8-.29-.71-.73ZM66.03,18.09c-.48.17-1.04.24-1.47.07-.65-.26-.16-.94-.28-1.41-.07-.26.04-.44.36-.41.14.01.29,0,.44,0,.33-.01.67-.02.98.11.37.15.55.44.54.83,0,.39-.19.68-.57.81Z"></path><path class="cls-4" d="M72.11,11.95c-2.05-.02-3.74,1.72-3.75,3.85,0,2.22,1.61,3.95,3.7,3.96,2.06,0,3.65-1.69,3.67-3.91.01-2.15-1.59-3.88-3.62-3.9ZM71.95,18.35c-1.22-.05-2.21-1.24-2.16-2.59.05-1.37,1.13-2.47,2.35-2.41,1.22.05,2.24,1.24,2.2,2.57-.04,1.39-1.11,2.48-2.39,2.43Z"></path><path class="cls-4" d="M40.29,18.86c-.75-1.98-1.5-3.96-2.25-5.94-.39-1.04-.39-1.02-1.48-1-.3,0-.45.1-.55.37-.22.63-.46,1.25-.7,1.87-.63,1.65-1.25,3.3-1.89,4.95-.14.35-.15.51.31.5,1.02,0,1.02.02,1.38-.96.32-.86.32-.85,1.27-.73.37.05.76.12,1.12.06.77-.13,1.14.19,1.28.92.1.53.37.88.89.7q.9,0,.62-.74ZM37.06,16.57c-.35-.03-.7-.09-1.1-.15.31-.8.6-1.57.94-2.46.35.92.66,1.72.99,2.61-.34,0-.59.02-.83,0Z"></path><path class="cls-4" d="M57.36,19.03c-.83-2.13-1.64-4.26-2.43-6.41-.19-.51-.4-.86-1.02-.66-.64-.23-.88.14-1.05.68-.17.53-.39,1.05-.59,1.57-.62,1.63-1.23,3.26-1.86,4.89-.14.35-.15.51.31.5,1.02,0,1.02.02,1.39-.96.05-.14.12-.27.15-.41.08-.41.34-.47.69-.39.55.12,1.13.21,1.67.13.7-.11,1,.19,1.1.8.12.72.54.89,1.23.84.5-.03.6-.1.41-.59ZM52.97,16.41c.3-.78.59-1.55.93-2.44.35.92.66,1.72.99,2.59-.68.08-1.27-.02-1.92-.14Z"></path><path class="cls-4" d="M98.73,19.06c-.87-2.22-1.72-4.45-2.53-6.7-.2-.55-.57-.43-.95-.43-.38,0-.74-.1-.93.45-.76,2.11-1.58,4.2-2.37,6.29-.11.29-.28.56-.27.88q1.4.17,1.88-1.1c.02-.06.04-.12.06-.18.08-.42.34-.52.73-.42.55.13,1.12.2,1.67.13.67-.09.96.19,1.06.77.13.73.56.93,1.27.87.45-.04.57-.08.39-.56ZM94.33,16.41c.3-.78.59-1.55.93-2.44.35.92.66,1.72.98,2.59-.69.08-1.28-.02-1.92-.15Z"></path><path class="cls-4" d="M56.5,26.88c-.29-.36-.53-.63-.07-1.13.44-.46.04-1.28-.59-1.46-.45-.12-.91-.05-1.36-.06-.22,0-.27.14-.27.33,0,.77,0,1.53,0,2.3,0,.17,0,.34.24.34.22,0,.34-.05.37-.3.03-.21-.18-.54.22-.6.34-.05.46.23.6.45.22.34.47.57.98.38-.06-.11-.08-.19-.13-.25ZM55.26,25.71c-.4.09-.43-.15-.44-.49-.01-.37.15-.46.48-.44.31.02.66,0,.67.44.01.46-.32.51-.7.49Z"></path><path class="cls-4" d="M58.64,24.71c-.04-.07-.07-.15-.11-.22-.14-.29-.27-.27-.41,0-.4.8-.78,1.59-1.19,2.38-.18.34.03.32.26.33.2,0,.27-.14.39-.26.29-.32,1.25-.33,1.5.01.21.28.43.27.78.19-.42-.85-.82-1.64-1.22-2.43ZM58.03,26.17c.02-.24.13-.43.28-.63.2.18.28.37.3.6-.18.09-.36.06-.58.03Z"></path><path class="cls-4" d="M73.86,24.19c-.8.02-1.5.72-1.5,1.52,0,.83.71,1.53,1.55,1.52.84,0,1.55-.72,1.53-1.55-.02-.83-.74-1.51-1.59-1.5ZM73.88,26.68c-.45-.03-.88-.5-.88-.96,0-.51.45-.94.96-.92.47.02.89.46.88.94,0,.49-.5.97-.96.94Z"></path><path class="cls-4" d="M67.76,24.19c-.81,0-1.5.69-1.52,1.5-.02.83.68,1.54,1.53,1.55.84,0,1.56-.7,1.55-1.52,0-.83-.73-1.53-1.56-1.52ZM67.75,26.68c-.45-.03-.88-.5-.88-.96,0-.51.45-.94.96-.92.47.02.89.46.88.94,0,.49-.5.97-.96.94Z"></path></g><g class="cls-1"><g><path class="cls-3" d="M1.62,11.12c-.05.07-.11.14-.16.22,0-.11-.1-.3.16-.22Z"></path><path class="cls-3" d="M1.49,11.83s.07.1.11.15c-.04-.05-.07-.1-.11-.15Z"></path><path class="cls-4" d="M2.92,12.3c-.23.01-.35-.1-.34-.33.18.05.29.16.34.33Z"></path><path class="cls-4" d="M15.3,13.8c-.04.17.07.27.17.39-.02.26-.12.45-.37.55-.67-.52-1.46-.82-2.23-1.15-.73-.53-1.49-.39-2.26-.12h-.04s-.03,0-.04,0c-1.03-.21-1.83.42-2.69.78-.29.12-.48.42-.44.79-.97,1-1.65,2.15-1.7,3.58-.02.52-.26.67-.76.65-.99-.04-1.97-.02-2.96-.01-.29,0-.54-.02-.53-.41,0-.39.26-.41.54-.4.66,0,1.32,0,1.98,0,.06-.45-.37-.5-.44-.78,0-.29.01-.58.18-.84.05.02.09.05.14.07.46.2.72.97,1.16.79.3-.12.34-.87.5-1.34.02-.01.05-.03.05-.04,0-.04-.02-.07-.03-.1-.06-.45-.51-.61-.71-.95-.06-.06-.12-.12-.19-.18-.2-.22-.41-.43-.61-.65,0-.23-.13-.33-.35-.31-.72-.67-1.44-1.34-2.06-2.11-.04-.05-.07-.1-.11-.15-.01-.17-.02-.33-.03-.5.05-.07.11-.14.16-.22.21.05.37.17.47.38.06.05.12.11.18.16.1.1.21.2.31.3,0,.24.11.35.34.33.86.85,1.74,1.69,2.58,2.57.39.4.63.44,1-.04.39-.5.79-.92.17-1.51.29-.09-.02-.49.3-.56.87.8.92.79,2.16.21.38-.18.35-.32.11-.57-.51-.51-1.02-1.02-1.52-1.53,0-.46-.14-.78-.67-.79.03-.24-.08-.35-.32-.32h0c.05-.34.3-.36.56-.37.35.17.63.41.78.78-.02.03-.05.06-.07.09.03-.02.06-.05.09-.07.04-.03.08-.02.12.01.06.06.12.11.18.17.26.27.52.55.79.82.05.05.1.1.15.15.35.32.71.65,1.06.97.31.28.51.14.52-.21.02-.9.15-1.73-.75-2.5-1.67-1.43-3.13-3.1-4.69-4.67.13-.33.42-.34.7-.36,1.29,1.26,2.64,2.47,3.84,3.83.12.14.27.26.42.37.29.22.49.22.49-.22.02-1.04.11-2.05-.97-2.78-.79-.53-1.3-1.41-2.07-2-.21-.16-.5-.34-.22-.64.23-.25.53-.38.83-.06.51.55,1.01,1.11,1.53,1.65.2.2.43.53.71.41.24-.1.17-.48.17-.74,0-.8,0-1.61.01-2.41,0-.24-.1-.58.33-.59.43,0,.44.3.44.61,0,.91,0,1.82,0,2.73,0,.29,0,.57.42.45.16.07.48.05.25.36-.15.21-.3.4-.31.67-.67.74-.27,1.64-.35,2.46-.02.21.13.28.31.16.18-.12.34-.25.51-.38.16.16.33.33.49.49-.1.12-.18.29-.3.36-1.2.65-1.06,1.77-1.02,2.85.02.43.28.31.48.16.34-.25.65-.55.97-.82.34.02.36.27.36.52-.68.73-.03.96.47,1.25.15.55.39.74.81.19h0c.27-.04.47.03.48.35h0Z"></path><path class="cls-4" d="M5.99,22.61c-1.57.1-2.85-.64-4.21-.99-.34-.09-.34-.4-.3-.66.07-.4.37-.18.57-.14,1.18.2,2.26.76,3.49.89,1.05.11,2.03,0,2.97-.39,1.79-.75,3.57-.82,5.37-.04,1.75.76,3.49.59,5.23-.08.45-.18.9-.36,1.39-.37.18,0,.46-.23.53.11.06.29.02.58-.34.72-2.27.87-4.56,1.4-6.94.4-1.67-.7-3.31-.66-4.98,0-.92.36-1.88.64-2.79.55h0Z"></path><path class="cls-4" d="M16.26,25.29c-.77-.16-1.65-.15-2.42-.57-1.69-.92-3.47-.82-5.1-.07-1.79.84-3.44.71-5.14-.03-.35-.15-.8-.19-1.02-.59-.09-.16-.24-.34-.11-.52.1-.14.3-.09.45-.04.23.06.47.12.68.23,1.11.58,2.33.53,3.52.65.63.06,1.16-.36,1.72-.56,1.57-.57,3.13-.56,4.67-.04,1.88.64,3.7.75,5.54-.09.33-.15.9-.5,1.07-.11.19.45-.37.71-.79.92-.95.47-1.96.7-3.07.81h0Z"></path><path class="cls-4" d="M17.69,26.75c-.58.93-1.29,1.11-2.11.96-.5-.09-1.02-.16-1.47-.36-1.87-.82-3.72-.79-5.6-.02-.59.24-1.22.36-1.87.41-.75.06-1.26-.27-1.71-.85.22-.19.43-.1.63-.08,1.2.09,2.31-.12,3.43-.61,1.33-.59,2.8-.63,4.15-.13,1.45.54,2.88.92,4.57.67Z"></path><path class="cls-4" d="M15.3,13.8c-.02-.31-.22-.38-.48-.35,1.95-1.98,3.9-3.95,5.85-5.92.1-.1.2-.31.38-.21.19.1.17.32.15.51-.03.3-.17.57-.38.78-1.61,1.61-3.22,3.21-4.83,4.8-.19.18-.4.36-.68.4Z"></path><path class="cls-4" d="M15.09,14.74c.25-.1.35-.3.37-.55.75.71,1.5.69,2.26-.07.9-.89,1.79-1.77,2.69-2.65.16-.16.36-.29.58-.47.36.96-.35,1.39-.81,1.88-.9.95-1.86,1.85-2.81,2.75-.33.31-.38.62-.19,1.01.15.32.24.65.24,1.01-.16-.07-.32-.15-.49-.02-.36-1.12-1.09-2-1.84-2.87Z"></path><path class="cls-4" d="M13.52,12.01c0-.25-.02-.5-.36-.52,1.08-1.41,2.45-2.53,3.69-3.77.49-.49.88-1.07,1.47-1.47.17-.12.34-.24.53-.33.18-.08.37-.09.5.1.13.2-.09.27-.16.39-.55.87-1.38,1.48-2.07,2.22-1.01,1.1-2.12,2.11-3.19,3.15-.11.1-.27.15-.41.23h0Z"></path><path class="cls-4" d="M16.93,17.61c.17-.13.33-.05.49.02,0,0-.02.06-.02.06,0,.15-.04.36.18.34.24-.02.44-.15.43-.44.39-.43.76-.88,1.25-1.21.04.27.07.54.23.77h0c-.5-.06-.7.17-.65.65-.14.16-.27.32-.53.62.86,0,1.58,0,2.31,0,.25,0,.59-.09.55.36-.02.32-.2.46-.53.46-1.02-.01-2.04-.01-3.05,0-.39,0-.51-.16-.52-.52-.01-.37-.08-.74-.12-1.11h0Z"></path><path class="cls-4" d="M13.04,8.94c-.16-.16-.33-.33-.49-.49,1.18-1.42,2.6-2.61,3.86-3.97.21-.23.43-.32.68-.06.24.25.16.48-.06.69-1.33,1.28-2.66,2.55-3.99,3.83h0Z"></path><path class="cls-4" d="M5.27,12.01c-1.17-1.13-2.34-2.26-3.52-3.38-.39-.37-.33-.8-.22-1.46,1.41,1.47,2.85,2.71,4.07,4.18-.22.16-.04.53-.33.66h0Z"></path><path class="cls-4" d="M7.28,9.39c-.26,0-.52.04-.56.37-1.31-.94-2.29-2.22-3.45-3.32-.15-.15-.32-.33-.07-.53.19-.16.41-.27.65-.08.04.03.09.06.13.09,1.05,1.21,2.37,2.15,3.3,3.47h0Z"></path><path class="cls-4" d="M13.74,29c-1.66.45-3.23.43-4.83,0,.91-.98,3.6-1,4.83,0Z"></path><path class="cls-4" d="M12.07,6.21c0-.27.15-.47.31-.67.23-.31-.09-.29-.25-.36.65-.7,1.32-1.39,1.96-2.1.3-.33.58-.23.83,0,.34.3,0,.47-.18.62-.97.75-1.59,1.88-2.67,2.51h0Z"></path><path class="cls-4" d="M3.7,16.8c-.16.26-.17.55-.18.84-.61-.6-1.22-1.2-1.84-1.79-.37-.35-.25-.77-.21-1.26.89.65,1.64,1.34,2.23,2.2h0Z"></path><path class="cls-4" d="M19.49,17.15c-.16-.23-.19-.5-.23-.77.37-.78,1.15-1.14,1.72-1.77.22,1.04.19,1.09-1.49,2.54Z"></path><path class="cls-4" d="M5.27,12.01c.3-.12.11-.49.33-.66.53.39,1.11.74,1.37,1.4-.32.07,0,.48-.3.56-.59-.3-.97-.84-1.4-1.31h0Z"></path><path class="cls-4" d="M7.39,15.03c-.04-.37.15-.67.44-.79.86-.36,1.66-.99,2.69-.78-1.14.33-2.21.81-3.14,1.57Z"></path><path class="cls-4" d="M10.6,13.46c.77-.27,1.54-.41,2.26.12-.75-.05-1.5-.19-2.26-.12Z"></path><path class="cls-4" d="M14.81,13.45c-.41.55-.65.37-.81-.19.27.06.54.13.81.19Z"></path><path class="cls-4" d="M6.16,4.57c-.29.02-.57.03-.7.36-.24-.22-.16-.43.07-.57.27-.17.49-.07.63.22h0Z"></path><path class="cls-4" d="M7.04,10.09c.53,0,.68.33.67.79-.31-.19-.53-.45-.67-.79Z"></path><path class="cls-4" d="M18.83,17.8c-.04-.48.16-.71.65-.65-.14.29-.38.49-.65.65Z"></path><path class="cls-4" d="M18.01,17.59c.01.3-.19.43-.43.44-.21.02-.18-.19-.18-.34.24.19.4-.06.6-.1Z"></path><path class="cls-4" d="M6.72,9.76c.24-.03.35.08.32.32-.18-.04-.28-.15-.32-.32Z"></path><path class="cls-4" d="M3.66,14.09c.22-.02.34.08.35.31-.19-.03-.3-.14-.35-.31Z"></path><path class="cls-4" d="M5.52,16.18s.02.07.03.1c0,.01-.03.03-.05.04-.02-.05-.01-.1.02-.14Z"></path><path class="cls-4" d="M4.63,15.05c.06.06.12.12.19.18-.06-.06-.12-.12-.19-.18Z"></path><path class="cls-4" d="M8.08,10.19s-.06.05-.09.07c.02-.03.05-.06.07-.09l.02.02Z"></path></g></g></svg>