<?xml version="1.0" encoding="utf-8"?>
<!-- Generator: Adobe Illustrator 28.2.0, SVG Export Plug-In . SVG Version: 6.00 Build 0)  -->
<svg version="1.1" id="Layer_1" xmlns="http://www.w3.org/2000/svg" xmlns:xlink="http://www.w3.org/1999/xlink" x="0px" y="0px"
	 viewBox="0 0 53.2 75.1" style="enable-background:new 0 0 53.2 75.1;" xml:space="preserve">
<style type="text/css">
	.st0{fill:#FFF8F2;stroke:#FFF8F2;stroke-width:0.2225;stroke-miterlimit:10;}
</style>
<path class="st0" d="M49.7,18.2c0.9,1.3,0.4,2.5-0.5,3.3c-4.2,4-8,8.5-12.5,12.2c-0.3,0.3-0.8,0.4-0.4,0.8c0.7,0.8,1.4,1.6,2.2,2.4
	c0.8,0.8,1.2-0.1,1.7-0.5c2.7-2.7,5.3-5.3,8-8c0.4-0.4,0.9-0.7,1.3-1.2c0.6,1.9,0.2,2.7-1.8,4.5c-2.3,2.1-4.4,4.4-6.7,6.5
	c-0.6,0.6-0.2,4.6,0.5,4.9c0.6,0.2,1.1-0.4,1.4-0.8c2-2,4.1-4,6.1-6.1c0.2-0.2,0.4-0.3,0.6-0.4c0.4,1.5,0.1,2.5-1,3.5
	c-1.8,1.7-3.5,3.6-5.4,5.6c2,0,3.7,0,5.4,0c0.5,0,1.2-0.2,1.2,0.7s-0.4,1.2-1.3,1.2c-2.4,0-4.7,0-7.1,0c-1,0-1.3-0.4-1.3-1.3
	c-0.1-5.6-5.3-11.7-11.8-12.4c-5.3-0.6-11.4,2.5-13.8,7.1c-0.9,1.7-1.4,3.4-1.5,5.3c-0.1,1.1-0.5,1.4-1.6,1.3c-2.3-0.1-4.6,0-6.9,0
	c-0.7,0-1.7,0.3-1.6-1C3.1,44.8,4,45,4.6,45c1.5,0,3,0,4.5,0c0.1-0.2,0.3-0.4,0.4-0.6c-1.7-1.6-3.4-3.2-5.1-4.7
	c-1.2-1-1.6-2.1-1.2-3.6c1.5,1.1,2.9,2.2,4.1,3.7c1,1.3,2.5,2.2,3.6,3.4c0.3,0.3,0.6,0.7,1,0c1.2-2.4,1-3.7-1-5.7
	c-2.4-2.3-4.6-4.7-7-7c-1-1.1-1.1-2-0.7-3.1c1.4,0.8,2.4,2,3.5,2.9c2.1,2,4.1,4.2,6.1,6.3c0.8,0.9,1.3,0.9,2.1-0.1
	c1.8-2.2,1.8-2.2-0.3-4.2c-3.6-3.5-7.2-7-10.9-10.5c-1-1-1-2-0.8-3.2c0.9-0.1,1.3,0.6,1.7,1.1c3.9,4.3,8.5,8,12.2,12.5
	c0.8,1,4.4,0.5,5-0.5c0.4-0.6-0.3-0.9-0.6-1.2C17.2,26.2,13,22.1,8.9,18c-0.5-0.5-1.1-1.1-1.6-1.7c-0.4-0.4-0.8-0.8-0.2-1.2
	c0.4-0.4,1-0.7,1.5-0.2c0.5,0.4,1,0.8,1.4,1.2c4.4,4.4,8.9,9,13.3,13.4c0.4,0.4,0.9,1.3,1.7,1c0.6-0.4,0.4-1.2,0.4-1.8
	c0.3-2.1-0.4-3.6-2.1-5.1c-3.7-3.3-7.1-6.9-10.6-10.5c-0.4-0.4-1-1-0.4-1.6c0.6-0.7,1.2-0.4,1.9,0.2c2.8,2.8,5.5,5.6,8.4,8.5
	c0.2,0.3,0.4,0.5,0.6,0.7c0.6,0.5,1.2,1.6,2,1.2c0.7-0.3,0.3-1.3,0.4-2.1c0.3-2.1-0.4-3.7-2.2-5.2c-1.9-1.4-3.3-3.6-5.3-5.1
	c-0.4-0.4-0.9-0.8-0.4-1.4c0.5-0.5,1.2-0.9,1.9-0.3c1.1,1.1,2,2.1,3,3.2c0.2,0.3,0.4,0.5,0.6,0.7c0.5,0.5,1.1,1.4,1.9,1.1
	c0.6-0.3,0.4-1.2,0.4-2c0-1.8,0-3.6,0-5.3c0-0.6-0.4-1.6,0.8-1.6c1.2,0,1,0.9,1,1.7c0,2,0,4.1,0,6.1c0,0.4-0.2,1,0.4,1.2
	c0.5,0.2,0.8-0.4,1.1-0.6c1.3-1.3,2.8-2.7,4-4.1c0.7-0.9,1.6-1,2.2-0.2c0.8,1-0.4,1.2-0.8,1.7c-2.1,2-4.1,4.2-6.2,6.2
	c-1.5,1.4-0.6,3.6-0.5,5.5c0.1,1,0.9,0,1.2-0.3c2.4-2.3,4.7-4.7,7-7c0.9-0.9,1.8-1.8,2.7-2.8c0.5-0.5,1.1-1,1.8-0.3
	c0.6,0.7,0.2,1.2-0.4,1.8c-3.8,3.7-7.7,7.5-11.5,11.2c-0.8,0.8-1.4,4.8-1,5.8c0.3,0.5,0.6,0.4,0.9,0.2c0.6-0.5,1.3-1,1.9-1.6
	c3.9-4,7.8-8,11.8-12c0.6-0.7,1.3-1.3,2.2-1.7c0.4-0.2,0.9-0.4,1.2,0.1c0.5,0.5-0.1,0.8-0.4,1.1c-1.5,2.2-3.6,4-5.5,5.9
	c-2.7,2.5-4.9,5.3-7.8,7.6c-1.5,1.1-1.2,1.6,0.4,2.5c1.6,0.9,2.7,0.6,3.9-0.7C40.7,27,45.2,22.6,49.7,18.2L49.7,18.2z"/>
<path class="st0" d="M39.5,54.9c-2.8,0-5.4-0.7-8-1.6c-3.3-1.2-6.7-1.4-9.9,0C15.6,55.9,9.8,54.9,4,52.6c-0.9-0.4-1-1-0.9-1.7
	c0.2-1,0.9-0.4,1.4-0.3c2.8,0.4,5.3,1.8,8.1,2.1c2.6,0.3,5,0,7.3-0.9c4.3-1.8,8.5-2,12.8-0.1c4.2,1.8,8.4,1.4,12.5-0.2
	c1.1-0.4,2.1-0.9,3.3-0.9c0.4,0,1.1-0.5,1.2,0.3c0.1,0.6,0.1,1.4-0.7,1.6C45.9,53.3,42.9,55.2,39.5,54.9L39.5,54.9z"/>
<path class="st0" d="M38.4,61.3c-1.9-0.4-4.1-0.4-6.1-1.5c-4-2-8.1-1.8-12,0C16.5,61.6,12.8,61.4,9,60c-0.9-0.4-1.8-0.7-2.6-1.2
	c-0.6-0.4-1.2-1.1-0.8-1.8c0.3-0.6,1.1-0.2,1.6,0c2.4,0.8,4.8,1.6,7.4,1.9c2.3,0.3,4.3-0.4,6.2-1.2c3.8-1.4,7.6-1.3,11.3-0.1
	c4.4,1.5,8.7,1.7,13.1-0.2c0.8-0.4,2.2-1.3,2.7-0.2c0.4,1-1.1,1.6-2,2.1C43.4,60.5,41,61,38.4,61.3L38.4,61.3z"/>
<path class="st0" d="M41.9,64.7c-1.3,1.7-2.5,2.5-4.3,2.4c-1.9-0.2-3.6-0.5-5.3-1.2c-3.8-1.6-7.6-1.4-11.4-0.1
	c-1.3,0.4-2.7,0.9-4,1.2c-2.1,0.4-4.1,0.3-5.4-1.8c0.1-0.1,0.1-0.3,0.2-0.3c3.6,0.3,6.9-0.4,10.4-1.8c3-1.2,6.4-1.2,9.5,0.2
	C34.8,64.7,38,65.2,41.9,64.7z"/>
<path class="st0" d="M32.4,70.1c-4,1.1-7.7,1-11.6,0C23.3,67.8,29.6,67.8,32.4,70.1z"/>
</svg>
