<svg xmlns="http://www.w3.org/2000/svg" xmlns:xlink="http://www.w3.org/1999/xlink" id="Layer_1" data-name="Layer 1" viewBox="0 0 100 100"><defs><style>      .cls-1 {        clip-path: url(#clippath);      }      .cls-2 {        fill: none;      }      .cls-2, .cls-3, .cls-4 {        stroke-width: 0px;      }      .cls-3 {        fill: #cba983;      }      .cls-4 {        fill: #fff;      }    </style><clipPath id="clippath"><rect class="cls-2" x="36.5" y="17.38" width="27.01" height="38.15"></rect></clipPath></defs><g><path class="cls-4" d="M75.89,67.86c0-1.96.05-3.75-.02-5.54-.04-.94.54-.71,1.04-.74.55-.03.95-.04.93.76-.05,2.98-.04,5.96,0,8.94,0,.58-.14.78-.75.77-.71,0-1.26.03-1.36-.94-.09-.84-.77-1.42-1.41-1.96-1.39-1.17-3.04-1.98-4.55-3.34v1.56c0,1.14,0,2.27,0,3.41,0,1.26-.35,1.52-1.6,1.26-.33-.07-.32-.26-.32-.49,0-3.15,0-6.3,0-9.46,0-.43.18-.52.56-.53.76-.01,1.47-.14,1.56,1.03.07.86.76,1.52,1.45,2.03,1.42,1.07,2.88,2.08,4.46,3.22Z"></path><path class="cls-4" d="M28.37,66.83c0,1.5-.02,3.01.01,4.51.01.56-.15.79-.72.7-.22-.03-.46-.03-.68,0-.46.05-.58-.16-.57-.59.02-1.11-.01-2.21.02-3.32.01-.46-.14-.62-.59-.52-1.35.33-2.7.67-4.05.98-.38.09-.29.36-.3.6,0,.74-.03,1.48,0,2.21.02.46-.09.7-.6.64-.25-.03-.51-.03-.77,0-.47.05-.56-.17-.56-.59.01-3.09.01-6.19,0-9.28,0-.44.15-.58.59-.6,1.33-.06,1.33-.07,1.33,1.28,0,1.05.02,2.1,0,3.15-.01.48.12.69.63.56,1.29-.34,2.55-.77,3.89-.89.38-.03.42-.29.42-.6-.01-.94.02-1.87-.01-2.81-.02-.51.14-.7.67-.69,1.58.04,1.26-.1,1.28,1.25.02,1.33,0,2.67,0,4Z"></path><path class="cls-4" d="M86.92,67.84c0,1.05-.06,2.1.02,3.15.06.83-.15,1.14-1.04,1.08-.67-.04-.92-.15-.9-.88.05-2.27,0-4.54.04-6.81.01-.7-.16-.98-.88-.89-.51.06-1.03-.05-1.53.02-.83.11-.96-.25-.97-.99,0-.73.16-.97.94-.95,2.3.06,4.6.06,6.9,0,.87-.03.72.46.72.96,0,.48.17,1.1-.7.97-.06,0-.11,0-.17,0-.78.06-1.83-.34-2.28.17-.39.44-.12,1.46-.13,2.22,0,.65,0,1.31,0,1.96Z"></path><path class="cls-4" d="M29.31,66.84c0-1.53.04-3.06-.02-4.59-.03-.91.57-.64,1.02-.66.46-.02.94-.15.93.66-.05,3.06-.03,6.12,0,9.18,0,.49-.16.61-.63.62-1.3,0-1.29.03-1.29-1.3,0-1.3,0-2.61,0-3.91Z"></path><path class="cls-4" d="M80.86,66.83c0,1.5-.02,3,.01,4.51.01.55-.14.74-.7.71-1.5-.06-1.21.15-1.21-1.21-.02-2.83.03-5.67-.03-8.5-.02-.81.38-.79.93-.76.51.02,1.07-.18,1.03.75-.08,1.5-.02,3-.02,4.5Z"></path><path class="cls-4" d="M49.07,82.62c-.97-.9-1.76-1.63-2.71-2.5,0,.76,0,1.31,0,1.87,0,.24-.01.46-.35.45-.26,0-.47-.06-.47-.35,0-1.21,0-2.41,0-3.86.97.89,1.75,1.61,2.6,2.4.17-.59.07-1.11.09-1.63.01-.29-.02-.59.4-.61.49-.02.44.32.44.64,0,1.1,0,2.21,0,3.6Z"></path><path class="cls-4" d="M60.16,82.49c-.4,0-.79-.07-1.15-.27-.21-.12-.5-.23-.34-.57.15-.31.38-.38.69-.2.35.21.71.38,1.13.26.22-.06.45-.17.44-.44,0-.23-.21-.32-.41-.37-.38-.1-.77-.18-1.15-.3-.55-.18-.82-.57-.78-1.16.03-.57.39-.87.89-1,.59-.16,1.18-.14,1.74.16.21.11.41.24.26.53-.12.22-.3.37-.55.25-.32-.14-.64-.25-.98-.21-.19.02-.42.05-.46.3-.04.25.16.35.35.41.21.07.44.12.66.17,1.01.23,1.39.62,1.31,1.35-.08.75-.63,1.12-1.64,1.11Z"></path><path class="cls-4" d="M51.8,78.34c.47,0,.9.14,1.26.43.21.17.63.37.34.72-.2.24-.54.27-.82-.03-.17-.19-.42-.29-.68-.31-.57-.04-1.01.21-1.23.73-.24.57-.16,1.12.34,1.54.44.37.91.43,1.41.11.12-.08.21-.2.33-.27.26-.15.52-.07.69.13.2.25-.06.41-.22.56-.61.6-1.71.73-2.44.3-.87-.51-1.27-1.45-1.02-2.39.23-.85,1.13-1.52,2.03-1.5Z"></path><path class="cls-4" d="M35.45,78.37c.34,0,.68,0,1.02,0,.28,0,.51.05.49.41-.01.32-.23.39-.46.35-.7-.09-.71.33-.69.83.02.59.02,1.19,0,1.78,0,.27.16.67-.37.68-.57.01-.43-.41-.44-.72-.02-.62-.03-1.25,0-1.87.02-.48-.08-.77-.64-.71-.29.03-.5-.07-.48-.43.02-.39.31-.34.56-.34.34,0,.68,0,1.02,0Z"></path><path class="cls-4" d="M8.05,67.04c-.3-.41-.23-.65-.04-1.04,1.03-2.09-.27-4.28-2.58-4.4-.51-.03-1.02,0-1.53,0-.54,0-1.08.02-1.62,0-.42-.02-.61.09-.61.56.02,3.12.02,6.25.02,9.37,0,.33.06.53.46.52,1.19-.02,2.39.06,3.58-.04,2.54-.22,3.8-2.93,2.33-4.97ZM4.86,63.49c.12,0,.38,0,.63.04.54.09.86.44.91.97.05.54-.22.93-.74,1.11-.58.2-1.18.08-1.77.09-.27,0-.3-.2-.31-.41,0-.23,0-.45,0-.68.02-1.29-.17-1.08,1.28-1.12ZM5.91,70.02c-.64.19-1.3.1-1.95.12-.31,0-.38-.19-.38-.44,0-.28,0-.57,0-.85,0-.28,0-.57,0-.85,0-.23.07-.39.33-.39.68.02,1.36-.1,2.03.12.55.18.83.58.82,1.16,0,.58-.3.96-.85,1.13Z"></path><path class="cls-4" d="M55.65,67.04c-.3-.41-.24-.65-.04-1.04,1.03-2.09-.27-4.28-2.58-4.4-.51-.03-1.02,0-1.53,0-.54,0-1.08.02-1.62,0-.42-.02-.61.09-.61.56.02,3.12.02,6.25.02,9.37,0,.33.06.53.46.52,1.19-.02,2.39.06,3.58-.04,2.54-.22,3.8-2.93,2.33-4.97ZM51.17,64.74c.02-1.4-.17-1.22,1.18-1.24,1.13-.01,1.67.37,1.66,1.12-.01.76-.59,1.03-1.87,1.12-.99.07-1.09-.4-.97-1ZM53.58,70c-.66.23-1.43.33-2.01.1-.89-.35-.22-1.28-.39-1.93-.09-.36.06-.6.5-.56.2.02.4,0,.6,0,.46-.01.91-.02,1.34.15.5.21.75.59.74,1.13,0,.54-.26.92-.78,1.1Z"></path><path class="cls-4" d="M61.89,61.62c-2.8-.03-5.11,2.35-5.11,5.25,0,3.03,2.2,5.39,5.05,5.4,2.81,0,4.99-2.31,5-5.34.02-2.93-2.17-5.29-4.94-5.32ZM61.67,70.36c-1.67-.07-3.02-1.69-2.95-3.54.07-1.87,1.54-3.37,3.21-3.29,1.67.07,3.05,1.7,3,3.51-.06,1.9-1.52,3.39-3.26,3.32Z"></path><path class="cls-4" d="M18.44,71.05c-1.03-2.7-2.05-5.41-3.07-8.11-.54-1.42-.54-1.4-2.02-1.37-.4,0-.62.13-.75.51-.3.86-.63,1.7-.95,2.55-.86,2.25-1.7,4.51-2.58,6.75-.19.48-.21.69.43.69,1.39,0,1.39.03,1.89-1.31.44-1.18.44-1.16,1.73-.99.51.07,1.04.16,1.53.08,1.06-.18,1.55.26,1.74,1.25.14.72.5,1.2,1.21.96q1.23,0,.84-1.01ZM14.05,67.93c-.48-.04-.95-.12-1.5-.2.42-1.09.82-2.14,1.28-3.36.48,1.26.9,2.35,1.36,3.56-.46,0-.8.02-1.13,0Z"></path><path class="cls-4" d="M41.75,71.28c-1.14-2.9-2.24-5.82-3.31-8.74-.26-.7-.54-1.17-1.39-.91-.87-.31-1.2.19-1.44.93-.23.73-.53,1.43-.81,2.15-.84,2.23-1.68,4.45-2.54,6.67-.19.48-.21.69.43.69,1.39,0,1.39.03,1.89-1.31.07-.19.17-.37.21-.56.11-.55.46-.65.94-.54.75.17,1.54.29,2.28.17.96-.15,1.36.26,1.5,1.1.16.98.74,1.21,1.67,1.15.68-.05.82-.13.56-.81ZM35.75,67.71c.41-1.07.8-2.11,1.27-3.33.48,1.26.9,2.35,1.35,3.53-.93.11-1.73-.02-2.62-.2Z"></path><path class="cls-4" d="M98.22,71.32c-1.18-3.04-2.35-6.08-3.45-9.15-.27-.75-.78-.58-1.29-.59-.51,0-1.01-.13-1.27.61-1.04,2.88-2.16,5.73-3.24,8.59-.15.39-.38.76-.37,1.2q1.9.23,2.56-1.5c.03-.08.06-.16.08-.24.11-.57.47-.71.99-.58.75.18,1.54.28,2.28.17.91-.13,1.31.26,1.45,1.05.18,1,.76,1.27,1.73,1.19.62-.06.78-.11.53-.76ZM92.21,67.71c.41-1.07.81-2.12,1.27-3.33.48,1.26.89,2.35,1.34,3.53-.94.1-1.75-.02-2.62-.21Z"></path><path class="cls-4" d="M40.58,82c-.39-.49-.72-.87-.09-1.54.6-.63.06-1.75-.8-1.99-.61-.17-1.24-.07-1.86-.09-.3,0-.37.19-.37.45,0,1.05,0,2.09,0,3.14,0,.23-.01.46.33.47.3,0,.46-.08.51-.41.05-.29-.25-.74.3-.83.46-.07.63.32.82.62.3.47.65.78,1.34.52-.08-.15-.11-.26-.18-.34ZM38.88,80.41c-.55.12-.59-.21-.61-.67-.02-.51.2-.63.65-.6.43.03.9,0,.92.6.01.62-.44.7-.96.67Z"></path><path class="cls-4" d="M43.5,79.03c-.05-.1-.1-.2-.15-.3-.19-.39-.38-.37-.56,0-.54,1.09-1.07,2.18-1.62,3.26-.24.47.04.44.36.45.27,0,.37-.18.53-.35.39-.43,1.71-.45,2.05.01.28.39.58.37,1.07.26-.58-1.16-1.12-2.24-1.66-3.32ZM42.67,81.04c.03-.33.18-.59.38-.86.28.24.38.51.41.82-.25.12-.49.09-.79.03Z"></path><path class="cls-4" d="M64.27,78.33c-1.09.02-2.04.98-2.04,2.08,0,1.14.96,2.08,2.12,2.08,1.15,0,2.12-.99,2.09-2.11-.03-1.14-1.01-2.07-2.16-2.04ZM64.3,81.73c-.62-.03-1.21-.68-1.2-1.31,0-.7.61-1.28,1.31-1.26.64.03,1.22.63,1.21,1.28,0,.67-.68,1.32-1.31,1.28Z"></path><path class="cls-4" d="M55.95,78.33c-1.1,0-2.05.95-2.08,2.04-.02,1.13.93,2.1,2.09,2.11,1.15,0,2.13-.95,2.12-2.08,0-1.13-.99-2.09-2.13-2.08ZM55.93,81.73c-.62-.03-1.21-.68-1.2-1.31,0-.7.61-1.28,1.31-1.26.64.03,1.22.63,1.21,1.28,0,.67-.68,1.32-1.31,1.28Z"></path></g><g class="cls-1"><g><path class="cls-3" d="M36.76,30.67c-.07.1-.15.2-.22.29,0-.15-.14-.41.22-.29Z"></path><path class="cls-3" d="M36.59,31.64c.05.07.1.13.15.2-.05-.07-.1-.13-.15-.2Z"></path><path class="cls-4" d="M38.54,32.27c-.32.02-.48-.13-.47-.45.24.06.4.21.47.45Z"></path><path class="cls-4" d="M55.43,34.32c-.05.23.09.37.23.53-.03.35-.17.62-.51.76-.92-.7-1.99-1.12-3.04-1.57-1-.72-2.04-.53-3.09-.16l-.05.02s-.05-.03-.05-.03c-1.41-.28-2.5.58-3.68,1.07-.39.16-.65.58-.6,1.08-1.32,1.37-2.25,2.93-2.33,4.88-.03.71-.35.91-1.03.88-1.34-.05-2.69-.02-4.04-.02-.39,0-.73-.02-.72-.56.01-.53.36-.55.74-.55.9,0,1.8,0,2.7,0,.09-.62-.51-.68-.6-1.06,0-.4.02-.8.24-1.15.07.03.13.06.2.09.63.27.98,1.32,1.59,1.08.41-.16.47-1.19.68-1.83.02-.02.06-.04.06-.05,0-.05-.02-.09-.04-.14-.08-.61-.69-.83-.96-1.3-.08-.08-.17-.16-.25-.24-.28-.3-.56-.59-.84-.89-.01-.31-.18-.45-.48-.42-.98-.92-1.96-1.83-2.81-2.87-.05-.07-.1-.13-.15-.2-.02-.23-.03-.45-.04-.68.07-.1.15-.2.22-.29.29.07.51.24.64.51.08.07.16.15.24.22.14.14.28.27.43.41,0,.32.15.47.47.45,1.18,1.17,2.38,2.31,3.52,3.51.53.55.85.6,1.36-.05.54-.69,1.08-1.26.23-2.05.4-.12-.03-.67.41-.77,1.19,1.09,1.25,1.07,2.95.29.52-.24.48-.44.15-.78-.69-.69-1.39-1.39-2.08-2.09.01-.63-.2-1.07-.91-1.07.04-.33-.11-.48-.44-.44h0c.07-.46.41-.49.77-.51.48.23.86.56,1.07,1.06-.03.04-.06.08-.1.13.04-.03.08-.07.12-.1.06-.04.11-.03.16.02.08.08.16.15.24.23.36.37.72.75,1.07,1.12.07.07.14.14.21.21.48.44.96.88,1.45,1.32.43.38.69.2.71-.29.03-1.23.2-2.36-1.03-3.41-2.28-1.96-4.28-4.24-6.4-6.38.18-.44.57-.47.96-.49,1.77,1.72,3.6,3.38,5.25,5.23.17.19.37.35.58.5.39.3.66.3.67-.3.03-1.43.15-2.8-1.32-3.79-1.07-.73-1.77-1.93-2.83-2.72-.29-.22-.68-.47-.3-.87.32-.34.73-.52,1.14-.08.69.75,1.38,1.51,2.09,2.25.27.28.58.72.98.56.32-.14.23-.65.24-1.01,0-1.1,0-2.2.02-3.29,0-.33-.14-.8.45-.8.58,0,.6.41.6.84,0,1.24,0,2.49,0,3.73,0,.39,0,.77.58.62.22.09.65.07.34.49-.21.29-.42.55-.42.92-.91,1.01-.36,2.23-.48,3.36-.03.28.18.39.43.22.24-.16.47-.35.7-.52.22.22.44.45.67.67-.14.17-.24.4-.42.49-1.64.88-1.44,2.41-1.39,3.89.02.59.38.43.66.22.46-.35.88-.74,1.32-1.12.47.03.49.37.49.71-.93,1-.05,1.32.65,1.7.21.76.54,1,1.1.26h.01c.36-.05.64.05.66.47h0Z"></path><path class="cls-4" d="M42.73,46.36c-2.15.13-3.89-.87-5.75-1.34-.46-.12-.47-.55-.4-.9.1-.55.5-.24.78-.2,1.62.27,3.09,1.04,4.76,1.22,1.44.16,2.77,0,4.06-.54,2.45-1.02,4.88-1.12,7.34-.05,2.39,1.03,4.77.81,7.14-.11.61-.24,1.23-.49,1.9-.51.25,0,.63-.31.73.15.09.4.03.79-.47.98-3.1,1.19-6.23,1.91-9.47.54-2.27-.96-4.52-.9-6.8,0-1.25.5-2.56.87-3.81.75h0Z"></path><path class="cls-4" d="M56.75,50.02c-1.05-.22-2.25-.21-3.3-.78-2.31-1.25-4.74-1.13-6.96-.09-2.45,1.14-4.7.97-7.02-.05-.48-.21-1.09-.26-1.39-.8-.12-.22-.33-.46-.16-.7.14-.2.41-.12.62-.06.32.09.64.17.93.32,1.51.79,3.18.73,4.8.89.86.08,1.58-.49,2.34-.76,2.14-.78,4.28-.77,6.37-.05,2.56.87,5.05,1.02,7.57-.12.45-.21,1.23-.68,1.46-.15.27.62-.5.97-1.08,1.26-1.3.64-2.67.95-4.19,1.1h0Z"></path><path class="cls-4" d="M58.69,52c-.79,1.27-1.76,1.52-2.89,1.32-.68-.12-1.39-.21-2.01-.49-2.56-1.12-5.08-1.07-7.64-.03-.81.33-1.67.49-2.55.56-1.03.08-1.72-.36-2.33-1.16.29-.26.59-.13.85-.11,1.63.13,3.16-.16,4.68-.83,1.82-.8,3.82-.87,5.66-.18,1.98.74,3.94,1.25,6.23.92Z"></path><path class="cls-4" d="M55.43,34.32c-.03-.43-.29-.52-.66-.48,2.66-2.7,5.32-5.39,7.99-8.08.14-.14.27-.42.52-.28.25.14.23.44.2.69-.04.42-.24.77-.52,1.06-2.19,2.19-4.39,4.38-6.6,6.56-.25.25-.54.5-.93.54Z"></path><path class="cls-4" d="M55.15,35.61c.34-.14.48-.41.51-.76,1.02.97,2.05.94,3.09-.09,1.22-1.21,2.44-2.42,3.67-3.62.22-.22.49-.4.79-.65.49,1.32-.47,1.9-1.11,2.56-1.23,1.29-2.54,2.52-3.84,3.75-.44.42-.52.85-.26,1.38.21.43.33.89.32,1.38-.22-.1-.44-.21-.67-.03-.49-1.53-1.49-2.73-2.51-3.92Z"></path><path class="cls-4" d="M53.01,31.89c0-.35-.03-.69-.49-.71,1.47-1.92,3.34-3.45,5.04-5.15.66-.66,1.2-1.46,2.01-2,.24-.16.46-.33.72-.44.25-.11.51-.12.68.14.18.27-.12.37-.22.53-.75,1.19-1.89,2.02-2.82,3.03-1.38,1.5-2.89,2.88-4.35,4.3-.15.14-.37.21-.56.31h0Z"></path><path class="cls-4" d="M57.66,39.52c.23-.18.45-.07.67.03,0,0-.02.08-.02.08,0,.21-.05.49.24.47.32-.02.6-.2.58-.61.54-.58,1.04-1.2,1.71-1.65.05.37.09.74.32,1.05h0c-.68-.09-.95.23-.89.89-.19.22-.37.44-.73.85,1.17,0,2.16,0,3.15,0,.34,0,.8-.12.75.49-.03.44-.27.63-.72.62-1.39-.02-2.78-.02-4.17,0-.53,0-.7-.22-.71-.72-.02-.51-.11-1.01-.17-1.52h0Z"></path><path class="cls-4" d="M52.35,27.7c-.22-.22-.44-.45-.67-.67,1.62-1.94,3.56-3.56,5.26-5.42.29-.31.59-.44.93-.09.33.34.21.65-.09.95-1.81,1.74-3.63,3.49-5.44,5.23h0Z"></path><path class="cls-4" d="M41.74,31.88c-1.6-1.54-3.2-3.08-4.81-4.61-.53-.51-.46-1.09-.3-1.99,1.93,2,3.9,3.7,5.56,5.71-.31.22-.05.72-.45.89h0Z"></path><path class="cls-4" d="M44.49,28.31c-.36.01-.7.05-.77.51-1.79-1.29-3.13-3.03-4.71-4.54-.21-.2-.44-.45-.09-.73.26-.22.55-.37.89-.11.06.05.13.08.18.13,1.43,1.65,3.24,2.94,4.51,4.74h0Z"></path><path class="cls-4" d="M53.3,55.08c-2.27.61-4.41.59-6.59.01,1.25-1.33,4.92-1.37,6.59-.01Z"></path><path class="cls-4" d="M51.03,23.97c0-.37.21-.64.42-.92.31-.42-.12-.4-.34-.49.89-.95,1.8-1.89,2.67-2.86.41-.45.79-.31,1.14,0,.47.4.01.64-.25.84-1.33,1.02-2.17,2.56-3.64,3.43h0Z"></path><path class="cls-4" d="M39.6,38.43c-.22.35-.24.75-.24,1.15-.84-.81-1.66-1.63-2.51-2.44-.51-.48-.34-1.05-.29-1.72,1.21.88,2.24,1.83,3.04,3.01h0Z"></path><path class="cls-4" d="M61.16,38.9c-.22-.32-.27-.69-.32-1.05.51-1.06,1.57-1.56,2.35-2.41.3,1.43.26,1.49-2.03,3.47Z"></path><path class="cls-4" d="M41.74,31.88c.4-.17.15-.67.45-.89.73.54,1.51,1.02,1.87,1.92-.44.1,0,.65-.41.77-.81-.42-1.32-1.15-1.92-1.79h0Z"></path><path class="cls-4" d="M44.64,36c-.05-.5.21-.92.6-1.08,1.18-.49,2.27-1.35,3.68-1.07-1.56.44-3.02,1.1-4.28,2.15Z"></path><path class="cls-4" d="M49.02,33.87c1.05-.37,2.1-.56,3.09.16-1.03-.06-2.05-.26-3.09-.16Z"></path><path class="cls-4" d="M54.76,33.85c-.56.74-.89.5-1.1-.26.37.09.73.17,1.1.26Z"></path><path class="cls-4" d="M42.96,21.72c-.39.02-.78.04-.96.49-.32-.3-.22-.59.1-.78.37-.23.67-.1.86.3h0Z"></path><path class="cls-4" d="M44.17,29.26c.72,0,.93.45.91,1.07-.42-.26-.73-.62-.91-1.07Z"></path><path class="cls-4" d="M60.26,39.79c-.06-.65.22-.97.89-.89-.2.4-.52.67-.89.89Z"></path><path class="cls-4" d="M59.13,39.5c.02.41-.26.58-.58.61-.29.02-.25-.26-.24-.47.33.26.55-.09.82-.14Z"></path><path class="cls-4" d="M43.73,28.82c.33-.04.48.11.44.44-.24-.05-.39-.2-.44-.44Z"></path><path class="cls-4" d="M39.55,34.72c.31-.02.47.11.48.42-.25-.04-.41-.19-.48-.42Z"></path><path class="cls-4" d="M42.09,37.58s.03.09.04.14c0,.02-.04.04-.06.05-.02-.07-.02-.13.03-.2Z"></path><path class="cls-4" d="M40.87,36.03c.08.08.17.16.25.24-.08-.08-.17-.16-.25-.24Z"></path><path class="cls-4" d="M45.58,29.4s-.08.07-.12.1c.03-.04.06-.08.1-.13l.02.02Z"></path></g></g></svg>